<?xml version="1.0" encoding="UTF-8"?>
<svg width="447px" height="98px" viewBox="0 0 447 98" version="1.1" xmlns="http://www.w3.org/2000/svg" xmlns:xlink="http://www.w3.org/1999/xlink">
    <!-- Generator: Sketch 44.1 (41455) - http://www.bohemiancoding.com/sketch -->
    <title>Group</title>
    <desc>Created with Sketch.</desc>
    <defs>
        <linearGradient x1="75.0285948%" y1="21.0964013%" x2="19.5653258%" y2="83.598735%" id="linearGradient-1">
            <stop stop-color="#F27F33" offset="0%"></stop>
            <stop stop-color="#DC1881" offset="100%"></stop>
        </linearGradient>
        <linearGradient x1="82.2817307%" y1="0%" x2="26.4254142%" y2="86.6432312%" id="linearGradient-2">
            <stop stop-color="#F27F33" offset="0%"></stop>
            <stop stop-color="#DC1881" offset="100%"></stop>
        </linearGradient>
        <linearGradient x1="26.4254153%" y1="0%" x2="50%" y2="100%" id="linearGradient-3">
            <stop stop-color="#F27F33" offset="0%"></stop>
            <stop stop-color="#DC1881" offset="100%"></stop>
        </linearGradient>
    </defs>
    <g id="Page-1" stroke="none" stroke-width="1" fill="none" fill-rule="evenodd">
        <g id="foundatio" transform="translate(-288.000000, -210.000000)">
            <g id="Group-2" transform="translate(184.000000, 134.000000)">
                <g id="Group" transform="translate(104.000000, 76.000000)">
                    <g id="Group-7">
                        <path d="M71.4811552,21.5813625 L68.1081181,12.3140195 L68.1081181,12.3140195 C65.3075819,4.61960948 57.6992679,0.0649103836 49.9104303,0.807646341 C51.1724352,1.54945836 52.3617978,2.46200515 53.4450793,3.54528672 L53.4450793,3.54528672 L71.4811552,21.5813625 Z M81.1923537,49.9104303 C81.9350896,57.6992679 77.3803905,65.3075819 69.6859805,68.1081181 L60.4186375,71.4811552 L78.4547133,53.4450793 C79.5379948,52.3617978 80.4505416,51.1724352 81.1923537,49.9104303 Z M32.0895697,81.1923537 C24.3007321,81.9350896 16.6924181,77.3803905 13.8918819,69.6859805 L10.5188448,60.4186375 L28.5549207,78.4547133 C29.6382022,79.5379948 30.8275648,80.4505416 32.0895697,81.1923537 Z M0.807646341,32.0895697 C0.0649103836,24.3007321 4.61960948,16.6924181 12.3140195,13.8918819 L21.5813625,10.5188448 L3.54528672,28.5549207 C2.46200515,29.6382022 1.54945836,30.8275648 0.807646341,32.0895697 Z" id="Combined-Shape" fill="url(#linearGradient-1)" opacity="0.5"></path>
                        <path d="M52.6401914,7.06556887 L75.5873969,30.0127744 C81.8357855,36.261163 81.8357855,46.3918027 75.5873969,52.6401914 L52.6401914,75.5873969 C46.3918027,81.8357855 36.261163,81.8357855 30.0127744,75.5873969 L7.06556887,52.6401914 C0.817180201,46.3918027 0.817180201,36.261163 7.06556887,30.0127744 L30.0127744,7.06556887 L30.0127744,7.06556887 C36.261163,0.817180201 46.3918027,0.817180201 52.6401914,7.06556887 L52.6401914,7.06556887 Z M34.7944759,28.3944759 C31.2598535,28.3944759 28.3944759,31.2598535 28.3944759,34.7944759 L28.3944759,47.7199661 C28.3944759,51.2545885 31.2598535,54.1199661 34.7944759,54.1199661 L47.7199661,54.1199661 C51.2545885,54.1199661 54.1199661,51.2545885 54.1199661,47.7199661 L54.1199661,34.7944759 C54.1199661,31.2598535 51.2545885,28.3944759 47.7199661,28.3944759 L34.7944759,28.3944759 Z" id="Combined-Shape" fill="url(#linearGradient-2)"></path>
                    </g>
                    <path d="M117.193004,8.20099695 C118.28501,8.5909989 118.831004,9.40999071 118.831004,10.6579969 C118.831004,11.2820001 118.577507,11.8474944 118.070504,12.3544969 C117.563502,12.8614995 116.959008,13.1149969 116.257004,13.1149969 C115.164999,12.9589962 114.209508,12.8809969 113.390504,12.8809969 L111.109004,12.8809969 C109.626997,12.8809969 108.457009,13.0174956 107.599004,13.2904969 C106.741,13.5634983 106.097506,14.089993 105.668504,14.8699969 C105.239502,15.6500008 104.966505,16.7224901 104.849504,18.0874969 C104.732504,19.4525038 104.674004,21.226986 104.674004,23.4109969 L104.674004,25.3999969 L115.555004,25.3999969 C116.335008,25.3999969 116.959002,25.6534944 117.427004,26.1604969 C117.895007,26.6674995 118.129004,27.310993 118.129004,28.0909969 C118.129004,29.8070055 117.271013,30.6649969 115.555004,30.6649969 L104.674004,30.6649969 L104.674004,69.3919969 C104.674004,70.1720008 104.401007,70.8349942 103.855004,71.3809969 C103.309002,71.9269997 102.646008,72.1999969 101.866004,72.1999969 C101.086,72.1999969 100.423007,71.9269997 99.8770043,71.3809969 C99.3310016,70.8349942 99.0580043,70.1720008 99.0580043,69.3919969 L99.0580043,30.6649969 L93.3250043,30.6649969 C91.6089957,30.6649969 90.7510043,29.8070055 90.7510043,28.0909969 C90.7510043,27.310993 90.985002,26.6674995 91.4530043,26.1604969 C91.9210066,25.6534944 92.5450004,25.3999969 93.3250043,25.3999969 L99.0580043,25.3999969 L99.0580043,23.4109969 C99.0580043,20.2909813 99.2725021,17.7170071 99.7015043,15.6889969 C100.130506,13.6609868 100.774,12.042503 101.632004,10.8334969 C102.490009,9.6244909 103.620997,8.78599929 105.025004,8.31799695 C106.429011,7.84999461 108.105995,7.61599695 110.056004,7.61599695 C110.524007,7.61599695 111.440497,7.63549675 112.805504,7.67449695 C114.170511,7.71349714 115.632996,7.88899539 117.193004,8.20099695 Z M137.941004,24.8149969 C142.465026,24.8149969 145.974991,25.3024921 148.471004,26.2774969 C150.967016,27.2525018 152.819498,28.5784886 154.028504,30.2554969 C155.23751,31.9325053 155.978502,33.9019856 156.251504,36.1639969 C156.524505,38.4260083 156.661004,40.8439841 156.661004,43.4179969 L156.661004,54.1819969 C156.661004,56.7560098 156.524505,59.1739856 156.251504,61.4359969 C155.978502,63.6980083 155.23751,65.6674886 154.028504,67.3444969 C152.819498,69.0215053 150.967016,70.3474921 148.471004,71.3224969 C145.974991,72.2975018 142.465026,72.7849969 137.941004,72.7849969 C133.416981,72.7849969 129.887516,72.2975018 127.352504,71.3224969 C124.817491,70.3474921 122.94551,69.0215053 121.736504,67.3444969 C120.527498,65.6674886 119.806005,63.6980083 119.572004,61.4359969 C119.338003,59.1739856 119.221004,56.7560098 119.221004,54.1819969 L119.221004,43.4179969 C119.221004,40.8439841 119.338003,38.4260083 119.572004,36.1639969 C119.806005,33.9019856 120.527498,31.9325053 121.736504,30.2554969 C122.94551,28.5784886 124.817491,27.2525018 127.352504,26.2774969 C129.887516,25.3024921 133.416981,24.8149969 137.941004,24.8149969 Z M151.045004,43.5349969 C151.045004,41.1169849 150.967005,39.0500055 150.811004,37.3339969 C150.655003,35.6179884 150.167508,34.2335022 149.348504,33.1804969 C148.5295,32.1274917 147.242513,31.3474995 145.487504,30.8404969 C143.732495,30.3334944 141.21702,30.0799969 137.941004,30.0799969 C134.664987,30.0799969 132.130013,30.3139946 130.336004,30.7819969 C128.541995,31.2499993 127.235508,32.0299915 126.416504,33.1219969 C125.5975,34.2140024 125.129504,35.6179884 125.012504,37.3339969 C124.895503,39.0500055 124.837004,41.1169849 124.837004,43.5349969 L124.837004,54.0649969 C124.837004,56.483009 124.895503,58.5304886 125.012504,60.2074969 C125.129504,61.8845053 125.5975,63.2689915 126.416504,64.3609969 C127.235508,65.4530024 128.541995,66.2524944 130.336004,66.7594969 C132.130013,67.2664995 134.664987,67.5199969 137.941004,67.5199969 C141.21702,67.5199969 143.732495,67.2664995 145.487504,66.7594969 C147.242513,66.2524944 148.5295,65.4530024 149.348504,64.3609969 C150.167508,63.2689915 150.655003,61.8845053 150.811004,60.2074969 C150.967005,58.5304886 151.045004,56.483009 151.045004,54.0649969 L151.045004,43.5349969 Z M192.853003,68.3389969 C191.994999,69.4310024 191.000509,70.2889938 189.869503,70.9129969 C188.738498,71.5370001 187.568509,71.9854956 186.359503,72.2584969 C185.150497,72.5314983 183.88301,72.6874968 182.557003,72.7264969 C181.230997,72.7654971 179.983009,72.7849969 178.813003,72.7849969 C175.692988,72.7849969 173.080014,72.3365014 170.974003,71.4394969 C168.867993,70.5424925 167.17151,69.3140047 165.884503,67.7539969 C164.597497,66.1939891 163.681006,64.3415077 163.135003,62.1964969 C162.589001,60.0514862 162.316003,57.7310094 162.316003,55.2349969 L162.316003,28.2079969 C162.316003,27.427993 162.589001,26.7649997 163.135003,26.2189969 C163.681006,25.6729942 164.343999,25.3999969 165.124003,25.3999969 C165.904007,25.3999969 166.567001,25.6729942 167.113003,26.2189969 C167.659006,26.7649997 167.932003,27.427993 167.932003,28.2079969 L167.932003,53.0119969 C167.932003,54.8840063 167.990503,56.6779884 168.107503,58.3939969 C168.224504,60.1100055 168.672999,61.6504901 169.453003,63.0154969 C170.233007,64.3805038 171.461495,65.4724929 173.138503,66.2914969 C174.815512,67.110501 177.213988,67.5199969 180.334003,67.5199969 C185.560029,67.5199969 189.167493,66.6035061 191.156503,64.7704969 C193.145513,62.9374878 194.140003,60.0320168 194.140003,56.0539969 L194.140003,28.2079969 C194.140003,27.427993 194.413001,26.7649997 194.959003,26.2189969 C195.505006,25.6729942 196.167999,25.3999969 196.948003,25.3999969 C197.728007,25.3999969 198.391001,25.6729942 198.937003,26.2189969 C199.483006,26.7649997 199.756003,27.427993 199.756003,28.2079969 L199.756003,69.3919969 C199.756003,70.1720008 199.483006,70.8349942 198.937003,71.3809969 C198.391001,71.9269997 197.728007,72.1999969 196.948003,72.1999969 C196.167999,72.1999969 195.505006,71.8880001 194.959003,71.2639969 C194.413001,70.6399938 194.062004,69.6650036 193.906003,68.3389969 L192.853003,68.3389969 Z M214.888003,29.2609969 L215.824003,29.2609969 C216.682007,28.1689915 217.676497,27.3110001 218.807503,26.6869969 C219.938509,26.0629938 221.108497,25.6144983 222.317503,25.3414969 C223.526509,25.0684956 224.793996,24.9124971 226.120003,24.8734969 C227.446009,24.8344968 228.693997,24.8149969 229.864003,24.8149969 C232.984018,24.8149969 235.596992,25.2634925 237.703003,26.1604969 C239.809013,27.0575014 241.505496,28.2859891 242.792503,29.8459969 C244.079509,31.4060047 244.996,33.2584862 245.542003,35.4034969 C246.088006,37.5485077 246.361003,39.8689845 246.361003,42.3649969 L246.361003,69.3919969 C246.361003,70.1720008 246.088006,70.8349942 245.542003,71.3809969 C244.996,71.9269997 244.333007,72.1999969 243.553003,72.1999969 C242.772999,72.1999969 242.110006,71.9269997 241.564003,71.3809969 C241.018,70.8349942 240.745003,70.1720008 240.745003,69.3919969 L240.745003,44.5879969 C240.745003,42.7159876 240.686503,40.9220055 240.569503,39.2059969 C240.452502,37.4899884 240.004007,35.9495038 239.224003,34.5844969 C238.443999,33.2194901 237.215511,32.127501 235.538503,31.3084969 C233.861494,30.4894929 231.463018,30.0799969 228.343003,30.0799969 C225.69099,30.0799969 223.487512,30.3139946 221.732503,30.7819969 C219.977494,31.2499993 218.573508,31.9519923 217.520503,32.8879969 C216.467498,33.8240016 215.707005,35.0134897 215.239003,36.4564969 C214.771001,37.8995042 214.537003,39.5959872 214.537003,41.5459969 L214.537003,69.3919969 C214.537003,70.1720008 214.264006,70.8349942 213.718003,71.3809969 C213.172,71.9269997 212.509007,72.1999969 211.729003,72.1999969 C210.948999,72.1999969 210.286006,71.9269997 209.740003,71.3809969 C209.194,70.8349942 208.921003,70.1720008 208.921003,69.3919969 L208.921003,28.3249969 C208.921003,27.4669927 209.194,26.7649997 209.740003,26.2189969 C210.286006,25.6729942 210.987999,25.3999969 211.846003,25.3999969 C212.704007,25.3999969 213.4255,25.6729942 214.010503,26.2189969 C214.595506,26.7649997 214.888003,27.4669927 214.888003,28.3249969 L214.888003,29.2609969 Z M258.217002,54.1819969 C258.217002,55.6640044 258.275502,57.204489 258.392502,58.8034969 C258.509503,60.4025049 258.977498,61.8454905 259.796502,63.1324969 C260.615506,64.4195034 261.921993,65.4724929 263.716002,66.2914969 C265.510011,67.110501 268.044986,67.5199969 271.321002,67.5199969 C274.597019,67.5199969 277.112494,67.110501 278.867502,66.2914969 C280.622511,65.4724929 281.909498,64.4195034 282.728502,63.1324969 C283.547506,61.8454905 284.015502,60.4025049 284.132502,58.8034969 C284.249503,57.204489 284.308002,55.6640044 284.308002,54.1819969 L284.308002,41.5459969 C284.308002,40.0639895 284.093505,38.6405038 283.664502,37.2754969 C283.2355,35.9104901 282.455508,34.7015022 281.324502,33.6484969 C280.193497,32.5954917 278.692012,31.7375003 276.820002,31.0744969 C274.947993,30.4114936 272.608016,30.0799969 269.800002,30.0799969 C266.913988,30.0799969 264.69101,30.4894929 263.131002,31.3084969 C261.570995,32.127501 260.420506,33.1999903 259.679502,34.5259969 C258.938499,35.8520036 258.509503,37.314489 258.392502,38.9134969 C258.275502,40.5125049 258.217002,42.0529895 258.217002,43.5349969 L258.217002,54.1819969 Z M289.924002,69.3919969 C289.924002,70.1720008 289.651005,70.8349942 289.105002,71.3809969 C288.559,71.9269997 287.896006,72.1999969 287.116002,72.1999969 C286.335998,72.1999969 285.673005,71.9269997 285.127002,71.3809969 C284.581,70.8349942 284.308002,70.1720008 284.308002,69.3919969 L284.308002,67.8709969 C283.371998,69.1190032 282.338508,70.0744936 281.207502,70.7374969 C280.076497,71.4005003 278.926008,71.8879954 277.756002,72.1999969 C276.585997,72.5119985 275.455008,72.6874968 274.363002,72.7264969 C273.270997,72.7654971 272.257007,72.7849969 271.321002,72.7849969 C266.718979,72.7849969 263.170015,72.2975018 260.674002,71.3224969 C258.17799,70.3474921 256.325508,69.0215053 255.116502,67.3444969 C253.907496,65.6674886 253.186004,63.7175081 252.952002,61.4944969 C252.718001,59.2714858 252.601002,56.8730098 252.601002,54.2989969 L252.601002,43.4179969 C252.601002,40.8439841 252.698501,38.4260083 252.893502,36.1639969 C253.088503,33.9019856 253.731997,31.9325053 254.824002,30.2554969 C255.916008,28.5784886 257.631991,27.2525018 259.972002,26.2774969 C262.312014,25.3024921 265.665981,24.8149969 270.034002,24.8149969 C270.502005,24.8149969 271.320997,24.8344968 272.491002,24.8734969 C273.661008,24.9124971 274.928496,25.0684956 276.293502,25.3414969 C277.658509,25.6144983 279.003996,26.0629938 280.330002,26.6869969 C281.656009,27.3110001 282.669999,28.1689915 283.372002,29.2609969 L284.308002,29.2609969 L284.308002,12.2959969 C284.308002,11.515993 284.581,10.8529997 285.127002,10.3069969 C285.673005,9.76099422 286.335998,9.48799695 287.116002,9.48799695 C287.896006,9.48799695 288.559,9.76099422 289.105002,10.3069969 C289.651005,10.8529997 289.924002,11.515993 289.924002,12.2959969 L289.924002,69.3919969 Z M312.193002,67.5199969 C315.703019,67.5199969 318.705989,66.7790044 321.202002,65.2969969 C323.698014,63.8149895 325.881993,61.9820079 327.754002,59.7979969 L327.754002,49.9699969 C326.583996,49.8139962 325.102011,49.7359969 323.308002,49.7359969 L319.213002,49.7359969 C316.87299,49.7359969 314.650012,49.7749966 312.544002,49.8529969 C310.437991,49.9309973 308.58551,50.2429942 306.986502,50.7889969 C305.387494,51.3349997 304.120007,52.1734913 303.184002,53.3044969 C302.247997,54.4355026 301.780002,56.0539864 301.780002,58.1599969 C301.780002,64.3220278 305.250967,67.4419966 312.193002,67.5199969 Z M302.599002,26.1019969 C306.499021,25.2439927 310.164985,24.8149969 313.597002,24.8149969 C316.561017,24.8149969 319.27149,25.0879942 321.728502,25.6339969 C324.185514,26.1799997 326.271993,27.0964905 327.988002,28.3834969 C329.70401,29.6705034 331.029997,31.3864862 331.966002,33.5314969 C332.902007,35.6765077 333.370002,38.3869806 333.370002,41.6629969 L333.370002,69.3919969 C333.370002,70.1720008 333.097005,70.8349942 332.551002,71.3809969 C332.004999,71.9269997 331.342006,72.1999969 330.562002,72.1999969 C329.781998,72.1999969 329.119005,71.9269997 328.573002,71.3809969 C328.026999,70.8349942 327.754002,70.1720008 327.754002,69.3919969 L327.754002,65.9989969 C325.33599,68.9630118 322.840015,70.834993 320.266002,71.6149969 C317.691989,72.3950008 315.040016,72.7849969 312.310002,72.7849969 C306.693974,72.7849969 302.599015,71.7320075 300.025002,69.6259969 C297.450989,67.5199864 296.164002,63.7760239 296.164002,58.3939969 C296.164002,55.8199841 296.690497,53.6360059 297.743502,51.8419969 C298.796507,50.047988 300.200493,48.6050024 301.955502,47.5129969 C303.710511,46.4209915 305.679991,45.6409993 307.864002,45.1729969 C310.048013,44.7049946 312.270991,44.4709969 314.533002,44.4709969 C316.561012,44.4709969 318.72549,44.665995 321.026502,45.0559969 C323.327513,45.4459989 325.296994,45.9919934 326.935002,46.6939969 L327.754002,46.6939969 L327.754002,41.5459969 C327.754002,39.361986 327.344506,37.5290044 326.525502,36.0469969 C325.706498,34.5649895 324.595009,33.3950012 323.191002,32.5369969 C321.786995,31.6789927 320.168511,31.0549989 318.335502,30.6649969 C316.502493,30.274995 314.572012,30.0799969 312.544002,30.0799969 C309.345986,30.0799969 306.421015,30.3529942 303.769002,30.8989969 C303.613001,30.9769973 303.340004,31.0159969 302.950002,31.0159969 C302.247998,31.0159969 301.663004,30.7819993 301.195002,30.3139969 C300.727,29.8459946 300.493002,29.2610005 300.493002,28.5589969 C300.493002,27.9349938 300.688,27.4084991 301.078002,26.9794969 C301.468004,26.5504948 301.974999,26.2579977 302.599002,26.1019969 Z M344.992001,14.2849969 C344.992001,13.504993 345.264999,12.8419997 345.811001,12.2959969 C346.357004,11.7499942 347.019998,11.4769969 347.800001,11.4769969 C348.580005,11.4769969 349.242999,11.7499942 349.789001,12.2959969 C350.335004,12.8419997 350.608001,13.504993 350.608001,14.2849969 L350.608001,25.3999969 L359.734001,25.3999969 C360.514005,25.3999969 361.137999,25.6534944 361.606001,26.1604969 C362.074004,26.6674995 362.308001,27.310993 362.308001,28.0909969 C362.308001,29.8070055 361.45001,30.6649969 359.734001,30.6649969 L350.608001,30.6649969 L350.608001,58.6279969 C350.608001,60.1880047 350.666501,61.4944917 350.783501,62.5474969 C350.900502,63.6005022 351.231999,64.4584936 351.778001,65.1214969 C352.324004,65.7845003 353.103996,66.2524956 354.118001,66.5254969 C355.132007,66.7984983 356.574992,66.9349969 358.447001,66.9349969 L359.851001,66.9349969 C360.553005,66.9349969 361.157499,67.1884944 361.664501,67.6954969 C362.171504,68.2024995 362.425001,68.8069934 362.425001,69.5089969 C362.425001,70.2110005 362.171504,70.8349942 361.664501,71.3809969 C361.157499,71.9269997 360.553005,72.1999969 359.851001,72.1999969 L358.564001,72.1999969 C355.989989,72.1999969 353.84501,71.9854991 352.129001,71.5564969 C350.412993,71.1274948 349.028507,70.406002 347.975501,69.3919969 C346.922496,68.3779919 346.162004,66.9935057 345.694001,65.2384969 C345.225999,63.4834882 344.992001,61.2800102 344.992001,58.6279969 L344.992001,30.6649969 L338.089001,30.6649969 C336.372993,30.6649969 335.515001,29.8070055 335.515001,28.0909969 C335.515001,27.310993 335.748999,26.6674995 336.217001,26.1604969 C336.685004,25.6534944 337.308998,25.3999969 338.089001,25.3999969 L344.992001,25.3999969 L344.992001,14.2849969 Z M367.144001,28.2079969 C367.144001,27.427993 367.416998,26.7649997 367.963001,26.2189969 C368.509004,25.6729942 369.171997,25.3999969 369.952001,25.3999969 C370.732005,25.3999969 371.394998,25.6729942 371.941001,26.2189969 C372.487004,26.7649997 372.760001,27.427993 372.760001,28.2079969 L372.760001,69.3919969 C372.760001,70.1720008 372.487004,70.8349942 371.941001,71.3809969 C371.394998,71.9269997 370.732005,72.1999969 369.952001,72.1999969 C369.171997,72.1999969 368.509004,71.9269997 367.963001,71.3809969 C367.416998,70.8349942 367.144001,70.1720008 367.144001,69.3919969 L367.144001,28.2079969 Z M367.144001,13.5829969 C367.144001,12.802993 367.416998,12.1399997 367.963001,11.5939969 C368.509004,11.0479942 369.171997,10.7749969 369.952001,10.7749969 C370.732005,10.7749969 371.394998,11.0479942 371.941001,11.5939969 C372.487004,12.1399997 372.760001,12.802993 372.760001,13.5829969 L372.760001,15.6889969 C372.760001,16.4690008 372.487004,17.1319942 371.941001,17.6779969 C371.394998,18.2239997 370.732005,18.4969969 369.952001,18.4969969 C369.171997,18.4969969 368.509004,18.2239997 367.963001,17.6779969 C367.416998,17.1319942 367.144001,16.4690008 367.144001,15.6889969 L367.144001,13.5829969 Z M398.89,24.8149969 C403.414023,24.8149969 406.923988,25.3024921 409.42,26.2774969 C411.916013,27.2525018 413.768494,28.5784886 414.9775,30.2554969 C416.186507,31.9325053 416.927499,33.9019856 417.2005,36.1639969 C417.473502,38.4260083 417.61,40.8439841 417.61,43.4179969 L417.61,54.1819969 C417.61,56.7560098 417.473502,59.1739856 417.2005,61.4359969 C416.927499,63.6980083 416.186507,65.6674886 414.9775,67.3444969 C413.768494,69.0215053 411.916013,70.3474921 409.42,71.3224969 C406.923988,72.2975018 403.414023,72.7849969 398.89,72.7849969 C394.365978,72.7849969 390.836513,72.2975018 388.3015,71.3224969 C385.766488,70.3474921 383.894507,69.0215053 382.6855,67.3444969 C381.476494,65.6674886 380.755002,63.6980083 380.521,61.4359969 C380.286999,59.1739856 380.17,56.7560098 380.17,54.1819969 L380.17,43.4179969 C380.17,40.8439841 380.286999,38.4260083 380.521,36.1639969 C380.755002,33.9019856 381.476494,31.9325053 382.6855,30.2554969 C383.894507,28.5784886 385.766488,27.2525018 388.3015,26.2774969 C390.836513,25.3024921 394.365978,24.8149969 398.89,24.8149969 Z M411.994,43.5349969 C411.994,41.1169849 411.916001,39.0500055 411.76,37.3339969 C411.604,35.6179884 411.116505,34.2335022 410.2975,33.1804969 C409.478496,32.1274917 408.191509,31.3474995 406.4365,30.8404969 C404.681492,30.3334944 402.166017,30.0799969 398.89,30.0799969 C395.613984,30.0799969 393.079009,30.3139946 391.285,30.7819969 C389.490992,31.2499993 388.184505,32.0299915 387.3655,33.1219969 C386.546496,34.2140024 386.078501,35.6179884 385.9615,37.3339969 C385.8445,39.0500055 385.786,41.1169849 385.786,43.5349969 L385.786,54.0649969 C385.786,56.483009 385.8445,58.5304886 385.9615,60.2074969 C386.078501,61.8845053 386.546496,63.2689915 387.3655,64.3609969 C388.184505,65.4530024 389.490992,66.2524944 391.285,66.7594969 C393.079009,67.2664995 395.613984,67.5199969 398.89,67.5199969 C402.166017,67.5199969 404.681492,67.2664995 406.4365,66.7594969 C408.191509,66.2524944 409.478496,65.4530024 410.2975,64.3609969 C411.116505,63.2689915 411.604,61.8845053 411.76,60.2074969 C411.916001,58.5304886 411.994,56.483009 411.994,54.0649969 L411.994,43.5349969 Z" id="foundatio" fill-opacity="0.87" fill="#1F1F1F"></path>
                    <path d="M312.3256,87.3138 C312.3256,87.0485987 312.3139,86.7717014 312.2905,86.4831 C312.2671,86.1944986 312.193001,85.9332012 312.0682,85.6992 C311.9434,85.4651988 311.748402,85.2702008 311.4832,85.1142 C311.217999,84.9581992 310.835803,84.8802 310.3366,84.8802 C309.837398,84.8802 309.427902,84.9386994 309.1081,85.0557 C308.788299,85.1727006 308.534801,85.328699 308.3476,85.5237 C308.160399,85.718701 308.027801,85.9370988 307.9498,86.1789 C307.8718,86.4207012 307.8328,86.6663988 307.8328,86.916 L307.8328,89.3262 C307.8328,89.5914013 307.8445,89.8682986 307.8679,90.1569 C307.8913,90.4455014 307.9732,90.7067988 308.1136,90.9408 C308.254001,91.1748012 308.476299,91.3697992 308.7805,91.5258 C309.084702,91.6818008 309.517597,91.7598 310.0792,91.7598 C310.640803,91.7598 311.073699,91.6818008 311.3779,91.5258 C311.682102,91.3697992 311.9044,91.1748012 312.0448,90.9408 C312.185201,90.7067988 312.2671,90.4455014 312.2905,90.1569 C312.3139,89.8682986 312.3256,89.5914013 312.3256,89.3262 L312.3256,87.3138 Z M306.3118,81.2064 C306.3118,80.9879989 306.382,80.8086007 306.5224,80.6682 C306.662801,80.5277993 306.842199,80.4576 307.0606,80.4576 C307.279001,80.4576 307.462299,80.5277993 307.6105,80.6682 C307.758701,80.8086007 307.8328,80.9879989 307.8328,81.2064 L307.8328,84.3654 L308.0434,84.3654 C308.183801,84.162599 308.363199,84.0027006 308.5816,83.8857 C308.800001,83.7686994 309.022299,83.6829003 309.2485,83.6283 C309.474701,83.5736997 309.685299,83.5425 309.8803,83.5347 C310.075301,83.5269 310.2118,83.523 310.2898,83.523 C311.179005,83.523 311.865398,83.620499 312.349,83.8155 C312.832603,84.010501 313.183599,84.2795983 313.402,84.6228 C313.620401,84.9660017 313.7491,85.3637977 313.7881,85.8162 C313.8271,86.2686023 313.8466,86.7599973 313.8466,87.2904 L313.8466,89.3496 C313.8466,89.8800027 313.8232,90.3752977 313.7764,90.8355 C313.7296,91.2957023 313.585301,91.6934983 313.3435,92.0289 C313.101699,92.3643017 312.727303,92.629499 312.2203,92.8245 C311.713298,93.019501 310.999605,93.117 310.0792,93.117 C309.689198,93.117 309.299202,93.0663005 308.9092,92.9649 C308.519198,92.8634995 308.160402,92.6334018 307.8328,92.2746 C307.8328,92.4930011 307.758701,92.6684993 307.6105,92.8011 C307.462299,92.9337007 307.279001,93 307.0606,93 C306.842199,93 306.662801,92.9298007 306.5224,92.7894 C306.382,92.6489993 306.3118,92.4696011 306.3118,92.2512 L306.3118,81.2064 Z M321.3658,92.2746 C321.038199,92.6958021 320.636503,92.9414996 320.1607,93.0117 C319.684898,93.0819004 319.213003,93.117 318.745,93.117 C318.167797,93.117 317.680302,93.0273009 317.2825,92.8479 C316.884698,92.6684991 316.557102,92.4189016 316.2997,92.0991 C316.042299,91.7792984 315.855101,91.4049021 315.7381,90.9759 C315.6211,90.5468979 315.5626,90.0750026 315.5626,89.5602 L315.5626,84.3888 C315.5626,84.1703989 315.6328,83.9910007 315.7732,83.8506 C315.913601,83.7101993 316.092999,83.64 316.3114,83.64 C316.529801,83.64 316.713099,83.7101993 316.8613,83.8506 C317.009501,83.9910007 317.0836,84.1703989 317.0836,84.3888 L317.0836,89.139 C317.0836,89.4510016 317.0953,89.7629984 317.1187,90.075 C317.1421,90.3870016 317.2201,90.6677988 317.3527,90.9174 C317.485301,91.1670012 317.695899,91.3697992 317.9845,91.5258 C318.273102,91.6818008 318.682598,91.7598 319.213,91.7598 C320.117805,91.7598 320.741799,91.6038016 321.085,91.2918 C321.428202,90.9797984 321.5998,90.4806034 321.5998,89.7942 L321.5998,84.3888 C321.5998,84.1703989 321.67,83.9910007 321.8104,83.8506 C321.950801,83.7101993 322.130199,83.64 322.3486,83.64 C322.567001,83.64 322.750299,83.7101993 322.8985,83.8506 C323.046701,83.9910007 323.1208,84.1703989 323.1208,84.3888 L323.1208,92.3214 L323.1208,92.2512 C323.1208,92.4696011 323.046701,92.6489993 322.8985,92.7894 C322.750299,92.9298007 322.567001,93 322.3486,93 C322.130199,93 321.950801,92.9337007 321.8104,92.8011 C321.67,92.6684993 321.5998,92.4930011 321.5998,92.2746 L321.3658,92.2746 Z M325.5388,84.3888 C325.5388,84.1703989 325.608999,83.9910007 325.7494,83.8506 C325.889801,83.7101993 326.069199,83.64 326.2876,83.64 C326.506001,83.64 326.689299,83.7101993 326.8375,83.8506 C326.985701,83.9910007 327.0598,84.1703989 327.0598,84.3888 L327.0598,92.2512 C327.0598,92.4696011 326.985701,92.6489993 326.8375,92.7894 C326.689299,92.9298007 326.506001,93 326.2876,93 C326.069199,93 325.889801,92.9298007 325.7494,92.7894 C325.608999,92.6489993 325.5388,92.4696011 325.5388,92.2512 L325.5388,84.3888 Z M325.5388,81.066 C325.5388,80.8475989 325.608999,80.6682007 325.7494,80.5278 C325.889801,80.3873993 326.069199,80.3172 326.2876,80.3172 C326.506001,80.3172 326.689299,80.3873993 326.8375,80.5278 C326.985701,80.6682007 327.0598,80.8475989 327.0598,81.066 L327.0598,81.534 C327.0598,81.7524011 326.985701,81.9317993 326.8375,82.0722 C326.689299,82.2126007 326.506001,82.2828 326.2876,82.2828 C326.069199,82.2828 325.889801,82.2126007 325.7494,82.0722 C325.608999,81.9317993 325.5388,81.7524011 325.5388,81.534 L325.5388,81.066 Z M329.4778,81.2064 C329.4778,80.9879989 329.547999,80.8086007 329.6884,80.6682 C329.828801,80.5277993 330.008199,80.4576 330.2266,80.4576 C330.445001,80.4576 330.628299,80.5277993 330.7765,80.6682 C330.924701,80.8086007 330.9988,80.9879989 330.9988,81.2064 L330.9988,92.2512 C330.9988,92.4696011 330.924701,92.6489993 330.7765,92.7894 C330.628299,92.9298007 330.445001,93 330.2266,93 C330.008199,93 329.828801,92.9298007 329.6884,92.7894 C329.547999,92.6489993 329.4778,92.4696011 329.4778,92.2512 L329.4778,81.2064 Z M334.5868,89.3262 C334.5868,89.5914013 334.5985,89.8682986 334.6219,90.1569 C334.6453,90.4455014 334.727199,90.7067988 334.8676,90.9408 C335.008001,91.1748012 335.230299,91.3697992 335.5345,91.5258 C335.838702,91.6818008 336.271597,91.7598 336.8332,91.7598 C337.394803,91.7598 337.827699,91.6818008 338.1319,91.5258 C338.436102,91.3697992 338.658399,91.1748012 338.7988,90.9408 C338.939201,90.7067988 339.0211,90.4455014 339.0445,90.1569 C339.0679,89.8682986 339.0796,89.5914013 339.0796,89.3262 L339.0796,86.916 C339.0796,86.6663988 339.040601,86.4207012 338.9626,86.1789 C338.8846,85.9370988 338.752001,85.718701 338.5648,85.5237 C338.377599,85.328699 338.120202,85.1727006 337.7926,85.0557 C337.464999,84.9386994 337.059403,84.8802 336.5758,84.8802 C336.076598,84.8802 335.694401,84.9581992 335.4292,85.1142 C335.163999,85.2702008 334.969001,85.4651988 334.8442,85.6992 C334.7194,85.9332012 334.6453,86.1944986 334.6219,86.4831 C334.5985,86.7717014 334.5868,87.0485987 334.5868,87.3138 L334.5868,89.3262 Z M340.6006,92.2512 C340.6006,92.4696011 340.530401,92.6489993 340.39,92.7894 C340.249599,92.9298007 340.070201,93 339.8518,93 C339.633399,93 339.450101,92.9337007 339.3019,92.8011 C339.153699,92.6684993 339.0796,92.4930011 339.0796,92.2746 C338.751999,92.6334018 338.393202,92.8634995 338.0032,92.9649 C337.613198,93.0663005 337.223202,93.117 336.8332,93.117 C335.912796,93.117 335.199103,93.019501 334.6921,92.8245 C334.185098,92.629499 333.810701,92.3643017 333.5689,92.0289 C333.327099,91.6934983 333.1828,91.2957023 333.136,90.8355 C333.0892,90.3752977 333.0658,89.8800027 333.0658,89.3496 L333.0658,87.2904 C333.0658,86.7599973 333.0853,86.2686023 333.1243,85.8162 C333.1633,85.3637977 333.291999,84.9660017 333.5104,84.6228 C333.728801,84.2795983 334.079798,84.010501 334.5634,83.8155 C335.047003,83.620499 335.733396,83.523 336.6226,83.523 C336.700601,83.523 336.837099,83.5269 337.0321,83.5347 C337.227101,83.5425 337.437699,83.5736997 337.6639,83.6283 C337.890101,83.6829003 338.112399,83.7686994 338.3308,83.8857 C338.549201,84.0027006 338.728599,84.162599 338.869,84.3654 L339.0796,84.3654 L339.0796,81.2064 C339.0796,80.9879989 339.153699,80.8086007 339.3019,80.6682 C339.450101,80.5277993 339.633399,80.4576 339.8518,80.4576 C340.070201,80.4576 340.249599,80.5277993 340.39,80.6682 C340.530401,80.8086007 340.6006,80.9879989 340.6006,81.2064 L340.6006,92.2512 Z M343.0186,84.3888 C343.0186,84.1703989 343.088799,83.9910007 343.2292,83.8506 C343.369601,83.7101993 343.548999,83.64 343.7674,83.64 C343.985801,83.64 344.169099,83.7101993 344.3173,83.8506 C344.465501,83.9910007 344.5396,84.1703989 344.5396,84.3888 L344.5396,92.2512 C344.5396,92.4696011 344.465501,92.6489993 344.3173,92.7894 C344.169099,92.9298007 343.985801,93 343.7674,93 C343.548999,93 343.369601,92.9298007 343.2292,92.7894 C343.088799,92.6489993 343.0186,92.4696011 343.0186,92.2512 L343.0186,84.3888 Z M343.0186,81.066 C343.0186,80.8475989 343.088799,80.6682007 343.2292,80.5278 C343.369601,80.3873993 343.548999,80.3172 343.7674,80.3172 C343.985801,80.3172 344.169099,80.3873993 344.3173,80.5278 C344.465501,80.6682007 344.5396,80.8475989 344.5396,81.066 L344.5396,81.534 C344.5396,81.7524011 344.465501,81.9317993 344.3173,82.0722 C344.169099,82.2126007 343.985801,82.2828 343.7674,82.2828 C343.548999,82.2828 343.369601,82.2126007 343.2292,82.0722 C343.088799,81.9317993 343.0186,81.7524011 343.0186,81.534 L343.0186,81.066 Z M348.7126,84.3654 C349.040202,83.9441979 349.441898,83.6985004 349.9177,83.6283 C350.393503,83.5580996 350.865398,83.523 351.3334,83.523 C351.910603,83.523 352.398098,83.6126991 352.7959,83.7921 C353.193702,83.9715009 353.521299,84.2210984 353.7787,84.5409 C354.036101,84.8607016 354.2233,85.2350979 354.3403,85.6641 C354.457301,86.0931021 354.5158,86.5649974 354.5158,87.0798 L354.5158,92.2512 C354.5158,92.4696011 354.441701,92.6489993 354.2935,92.7894 C354.145299,92.9298007 353.962001,93 353.7436,93 C353.525199,93 353.345801,92.9298007 353.2054,92.7894 C353.064999,92.6489993 352.9948,92.4696011 352.9948,92.2512 L352.9948,87.501 C352.9948,87.1889984 352.9831,86.8770016 352.9597,86.565 C352.9363,86.2529984 352.858301,85.9722012 352.7257,85.7226 C352.593099,85.4729988 352.382502,85.2702008 352.0939,85.1142 C351.805299,84.9581992 351.395803,84.8802 350.8654,84.8802 C349.960596,84.8802 349.336602,85.0361984 348.9934,85.3482 C348.650198,85.6602016 348.4786,86.1593966 348.4786,86.8458 L348.4786,92.2512 C348.4786,92.4696011 348.404501,92.6489993 348.2563,92.7894 C348.108099,92.9298007 347.924801,93 347.7064,93 C347.487999,93 347.308601,92.9298007 347.1682,92.7894 C347.027799,92.6489993 346.9576,92.4696011 346.9576,92.2512 L346.9576,84.3888 C346.9576,84.1703989 347.027799,83.9910007 347.1682,83.8506 C347.308601,83.7101993 347.487999,83.64 347.7064,83.64 C347.924801,83.64 348.108099,83.7062993 348.2563,83.8389 C348.404501,83.9715007 348.4786,84.1469989 348.4786,84.3654 L348.7126,84.3654 Z M362.3626,86.916 C362.3626,86.6663988 362.323601,86.4207012 362.2456,86.1789 C362.1676,85.9370988 362.035001,85.718701 361.8478,85.5237 C361.660599,85.328699 361.403202,85.1727006 361.0756,85.0557 C360.747998,84.9386994 360.342403,84.8802 359.8588,84.8802 C359.359598,84.8802 358.977401,84.9581992 358.7122,85.1142 C358.446999,85.2702008 358.252001,85.4651988 358.1272,85.6992 C358.002399,85.9332012 357.9283,86.1944986 357.9049,86.4831 C357.8815,86.7717014 357.8698,87.0485987 357.8698,87.3138 L357.8698,89.3262 C357.8698,89.5914013 357.8815,89.8682986 357.9049,90.1569 C357.9283,90.4455014 358.010199,90.7067988 358.1506,90.9408 C358.291001,91.1748012 358.513299,91.3697992 358.8175,91.5258 C359.121702,91.6818008 359.554597,91.7598 360.1162,91.7598 C360.677803,91.7598 361.110699,91.6818008 361.4149,91.5258 C361.719102,91.3697992 361.941399,91.1748012 362.0818,90.9408 C362.222201,90.7067988 362.3041,90.4455014 362.3275,90.1569 C362.3509,89.8682986 362.3626,89.5914013 362.3626,89.3262 L362.3626,86.916 Z M357.4954,97.095 C357.308199,97.0637998 357.148301,96.9858006 357.0157,96.861 C356.883099,96.7361994 356.8168,96.5880009 356.8168,96.4164 C356.8168,96.2291991 356.883099,96.0693007 357.0157,95.9367 C357.148301,95.8040993 357.308199,95.7378 357.4954,95.7378 C357.869802,95.8158004 358.283198,95.8703998 358.7356,95.9016 C359.188002,95.9328002 359.577998,95.9484 359.9056,95.9484 C360.623204,95.9484 361.212098,95.8041014 361.6723,95.5155 C362.132502,95.2268986 362.3626,94.7082037 362.3626,93.9594 L362.3626,92.2746 C362.034998,92.6334018 361.676202,92.8634995 361.2862,92.9649 C360.896198,93.0663005 360.506202,93.117 360.1162,93.117 C359.195796,93.117 358.482103,93.019501 357.9751,92.8245 C357.468098,92.629499 357.093701,92.3643017 356.8519,92.0289 C356.610099,91.6934983 356.4658,91.2957023 356.419,90.8355 C356.3722,90.3752977 356.3488,89.8800027 356.3488,89.3496 L356.3488,87.2904 C356.3488,86.7599973 356.3683,86.2686023 356.4073,85.8162 C356.4463,85.3637977 356.574999,84.9660017 356.7934,84.6228 C357.011801,84.2795983 357.362798,84.010501 357.8464,83.8155 C358.330003,83.620499 359.016396,83.523 359.9056,83.523 C359.983601,83.523 360.120099,83.5269 360.3151,83.5347 C360.510101,83.5425 360.720699,83.5736997 360.9469,83.6283 C361.173101,83.6829003 361.395399,83.7686994 361.6138,83.8857 C361.832201,84.0027006 362.011599,84.162599 362.152,84.3654 L362.3626,84.3654 C362.3626,84.1469989 362.432799,83.9715007 362.5732,83.8389 C362.713601,83.7062993 362.892999,83.64 363.1114,83.64 C363.329801,83.64 363.513099,83.7101993 363.6613,83.8506 C363.809501,83.9910007 363.8836,84.1703989 363.8836,84.3888 L363.8836,93.819 C363.8836,94.4742033 363.790001,95.0240978 363.6028,95.4687 C363.415599,95.9133022 363.146502,96.2720986 362.7955,96.5451 C362.444498,96.8181014 362.023303,97.0130994 361.5319,97.1301 C361.040498,97.2471006 360.490603,97.3056 359.8822,97.3056 C359.570199,97.3056 359.195802,97.2900002 358.759,97.2588 C358.322198,97.2275998 357.901002,97.1730004 357.4954,97.095 Z M376.2544,87.3138 C376.2544,87.0485987 376.2427,86.7717014 376.2193,86.4831 C376.1959,86.1944986 376.121801,85.9332012 375.997,85.6992 C375.872199,85.4651988 375.677201,85.2702008 375.412,85.1142 C375.146799,84.9581992 374.764603,84.8802 374.2654,84.8802 C373.766198,84.8802 373.356702,84.9386994 373.0369,85.0557 C372.717098,85.1727006 372.463601,85.328699 372.2764,85.5237 C372.089199,85.718701 371.9566,85.9370988 371.8786,86.1789 C371.8006,86.4207012 371.7616,86.6663988 371.7616,86.916 L371.7616,89.3262 C371.7616,89.5914013 371.7733,89.8682986 371.7967,90.1569 C371.8201,90.4455014 371.901999,90.7067988 372.0424,90.9408 C372.182801,91.1748012 372.405099,91.3697992 372.7093,91.5258 C373.013502,91.6818008 373.446397,91.7598 374.008,91.7598 C374.569603,91.7598 375.002499,91.6818008 375.3067,91.5258 C375.610902,91.3697992 375.833199,91.1748012 375.9736,90.9408 C376.114001,90.7067988 376.1959,90.4455014 376.2193,90.1569 C376.2427,89.8682986 376.2544,89.5914013 376.2544,89.3262 L376.2544,87.3138 Z M370.2406,81.2064 C370.2406,80.9879989 370.310799,80.8086007 370.4512,80.6682 C370.591601,80.5277993 370.770999,80.4576 370.9894,80.4576 C371.207801,80.4576 371.391099,80.5277993 371.5393,80.6682 C371.687501,80.8086007 371.7616,80.9879989 371.7616,81.2064 L371.7616,84.3654 L371.9722,84.3654 C372.112601,84.162599 372.291999,84.0027006 372.5104,83.8857 C372.728801,83.7686994 372.951099,83.6829003 373.1773,83.6283 C373.403501,83.5736997 373.614099,83.5425 373.8091,83.5347 C374.004101,83.5269 374.1406,83.523 374.2186,83.523 C375.107805,83.523 375.794198,83.620499 376.2778,83.8155 C376.761403,84.010501 377.112399,84.2795983 377.3308,84.6228 C377.549201,84.9660017 377.6779,85.3637977 377.7169,85.8162 C377.7559,86.2686023 377.7754,86.7599973 377.7754,87.2904 L377.7754,89.3496 C377.7754,89.8800027 377.752,90.3752977 377.7052,90.8355 C377.6584,91.2957023 377.514101,91.6934983 377.2723,92.0289 C377.030499,92.3643017 376.656103,92.629499 376.1491,92.8245 C375.642098,93.019501 374.928405,93.117 374.008,93.117 C373.617998,93.117 373.228002,93.0663005 372.838,92.9649 C372.447998,92.8634995 372.089202,92.6334018 371.7616,92.2746 C371.7616,92.4930011 371.687501,92.6684993 371.5393,92.8011 C371.391099,92.9337007 371.207801,93 370.9894,93 C370.770999,93 370.591601,92.9298007 370.4512,92.7894 C370.310799,92.6489993 370.2406,92.4696011 370.2406,92.2512 L370.2406,81.2064 Z M379.8424,81.2064 C379.8424,80.9879989 379.912599,80.8086007 380.053,80.6682 C380.193401,80.5277993 380.372799,80.4576 380.5912,80.4576 C380.809601,80.4576 380.992899,80.5277993 381.1411,80.6682 C381.289301,80.8086007 381.3634,80.9879989 381.3634,81.2064 L381.3634,92.2512 C381.3634,92.4696011 381.289301,92.6489993 381.1411,92.7894 C380.992899,92.9298007 380.809601,93 380.5912,93 C380.372799,93 380.193401,92.9298007 380.053,92.7894 C379.912599,92.6489993 379.8424,92.4696011 379.8424,92.2512 L379.8424,81.2064 Z M387.1978,83.523 C388.118205,83.523 388.831898,83.620499 389.3389,83.8155 C389.845903,84.010501 390.220299,84.2795983 390.4621,84.6228 C390.703901,84.9660017 390.8482,85.3637977 390.895,85.8162 C390.9418,86.2686023 390.9652,86.7599973 390.9652,87.2904 L390.9652,89.3496 C390.9652,89.8800027 390.9418,90.3752977 390.895,90.8355 C390.8482,91.2957023 390.703901,91.6934983 390.4621,92.0289 C390.220299,92.3643017 389.845903,92.629499 389.3389,92.8245 C388.831898,93.019501 388.118205,93.117 387.1978,93.117 C386.277395,93.117 385.563703,93.019501 385.0567,92.8245 C384.549698,92.629499 384.175301,92.3643017 383.9335,92.0289 C383.691699,91.6934983 383.5474,91.2957023 383.5006,90.8355 C383.4538,90.3752977 383.4304,89.8800027 383.4304,89.3496 L383.4304,87.2904 C383.4304,86.7599973 383.4538,86.2686023 383.5006,85.8162 C383.5474,85.3637977 383.691699,84.9660017 383.9335,84.6228 C384.175301,84.2795983 384.549698,84.010501 385.0567,83.8155 C385.563703,83.620499 386.277395,83.523 387.1978,83.523 Z M389.4442,87.3138 C389.4442,87.0485987 389.4325,86.7717014 389.4091,86.4831 C389.3857,86.1944986 389.303801,85.9332012 389.1634,85.6992 C389.022999,85.4651988 388.800702,85.2702008 388.4965,85.1142 C388.192299,84.9581992 387.759403,84.8802 387.1978,84.8802 C386.636197,84.8802 386.203302,84.9581992 385.8991,85.1142 C385.594899,85.2702008 385.372601,85.4651988 385.2322,85.6992 C385.091799,85.9332012 385.0099,86.1944986 384.9865,86.4831 C384.9631,86.7717014 384.9514,87.0485987 384.9514,87.3138 L384.9514,89.3262 C384.9514,89.5914013 384.9631,89.8682986 384.9865,90.1569 C385.0099,90.4455014 385.091799,90.7067988 385.2322,90.9408 C385.372601,91.1748012 385.594899,91.3697992 385.8991,91.5258 C386.203302,91.6818008 386.636197,91.7598 387.1978,91.7598 C387.759403,91.7598 388.192299,91.6818008 388.4965,91.5258 C388.800702,91.3697992 389.022999,91.1748012 389.1634,90.9408 C389.303801,90.7067988 389.3857,90.4455014 389.4091,90.1569 C389.4325,89.8682986 389.4442,89.5914013 389.4442,89.3262 L389.4442,87.3138 Z M399.1162,91.5492 C399.303401,91.5492 399.455499,91.6154993 399.5725,91.7481 C399.689501,91.8807007 399.748,92.0405991 399.748,92.2278 C399.748,92.3838008 399.7051,92.5241994 399.6193,92.649 C399.5335,92.7738006 399.412601,92.8517998 399.2566,92.883 C398.850998,92.9610004 398.406402,93.0194998 397.9228,93.0585 C397.439198,93.0975002 397.025802,93.117 396.6826,93.117 C396.074197,93.117 395.524303,93.0585006 395.0329,92.9415 C394.541498,92.8244994 394.120302,92.6295014 393.7693,92.3565 C393.418298,92.0834986 393.149201,91.7247022 392.962,91.2801 C392.774799,90.8354978 392.6812,90.2856033 392.6812,89.6304 L392.6812,87.0096 C392.6812,86.3543967 392.774799,85.8045022 392.962,85.3599 C393.149201,84.9152978 393.418298,84.5565014 393.7693,84.2835 C394.120302,84.0104986 394.541498,83.8155006 395.0329,83.6985 C395.524303,83.5814994 396.074197,83.523 396.6826,83.523 C397.041402,83.523 397.458698,83.5424998 397.9345,83.5815 C398.410302,83.6205002 398.850998,83.6789996 399.2566,83.757 C399.412601,83.7882002 399.5335,83.8661994 399.6193,83.991 C399.7051,84.1158006 399.748,84.2561992 399.748,84.4122 C399.748,84.5994009 399.689501,84.7592993 399.5725,84.8919 C399.455499,85.0245007 399.303401,85.0908 399.1162,85.0908 C398.741798,85.0127996 398.320602,84.9582002 397.8526,84.927 C397.384598,84.8957998 396.986802,84.8802 396.6592,84.8802 C395.941596,84.8802 395.352702,85.0244986 394.8925,85.3131 C394.432298,85.6017014 394.2022,86.1203963 394.2022,86.8692 L394.2022,89.7708 C394.2022,90.5196037 394.432298,91.0382986 394.8925,91.3269 C395.352702,91.6155014 395.941596,91.7598 396.6592,91.7598 C396.986802,91.7598 397.384598,91.7442002 397.8526,91.713 C398.320602,91.6817998 398.741798,91.6272004 399.1162,91.5492 Z M408.2968,83.7804 C408.437201,83.6867995 408.585399,83.64 408.7414,83.64 C408.975401,83.64 409.178199,83.7491989 409.3498,83.9676 C409.4434,84.1080007 409.4902,84.2561992 409.4902,84.4122 C409.4902,84.6774013 409.388801,84.8801993 409.186,85.0206 L406.9396,86.7522 L409.6306,91.9704 C409.6462,92.0172002 409.654,92.0873995 409.654,92.181 C409.654,92.3526009 409.6072,92.5046993 409.5136,92.6373 C409.42,92.7699007 409.295201,92.8673997 409.1392,92.9298 C409.0456,92.9766002 408.944201,93 408.835,93 C408.522998,93 408.304601,92.8362016 408.1798,92.5086 L405.6994,87.6882 L403.0786,89.6304 L403.0786,92.2512 C403.0786,92.4696011 403.004501,92.6489993 402.8563,92.7894 C402.708099,92.9298007 402.524801,93 402.3064,93 C402.087999,93 401.908601,92.9298007 401.7682,92.7894 C401.627799,92.6489993 401.5576,92.4696011 401.5576,92.2512 L401.5576,81.2064 C401.5576,80.9879989 401.627799,80.8086007 401.7682,80.6682 C401.908601,80.5277993 402.087999,80.4576 402.3064,80.4576 C402.524801,80.4576 402.708099,80.5277993 402.8563,80.6682 C403.004501,80.8086007 403.0786,80.9879989 403.0786,81.2064 L403.0786,87.7584 L408.2968,83.7804 Z M411.3466,92.8362 C410.894198,92.7425995 410.668,92.5008019 410.668,92.1108 C410.668,91.9235991 410.730399,91.7559007 410.8552,91.6077 C410.980001,91.4594993 411.151599,91.3854 411.37,91.3854 C411.557201,91.4478003 411.771699,91.5023998 412.0135,91.5492 C412.255301,91.5960002 412.497099,91.6349998 412.7389,91.6662 C412.980701,91.6974002 413.210799,91.7207999 413.4292,91.7364 C413.647601,91.7520001 413.834799,91.7598 413.9908,91.7598 C414.396402,91.7598 414.727899,91.7286003 414.9853,91.6662 C415.242701,91.6037997 415.441599,91.5141006 415.582,91.3971 C415.722401,91.2800994 415.816,91.1319009 415.8628,90.9525 C415.9096,90.7730991 415.933,90.5586012 415.933,90.309 C415.933,90.0125985 415.796501,89.7708009 415.5235,89.5836 C415.250499,89.3963991 414.911202,89.2326007 414.5056,89.0922 C414.099998,88.9517993 413.659302,88.8153007 413.1835,88.6827 C412.707698,88.5500993 412.267002,88.3785011 411.8614,88.1679 C411.455798,87.9572989 411.116501,87.6882016 410.8435,87.3606 C410.570499,87.0329984 410.434,86.6118026 410.434,86.097 C410.434,85.1297952 410.757697,84.4590019 411.4051,84.0846 C412.052503,83.7101981 412.929994,83.523 414.0376,83.523 C414.396402,83.523 414.801998,83.5424998 415.2544,83.5815 C415.706802,83.6205002 416.127998,83.6789996 416.518,83.757 C416.674001,83.7882002 416.7949,83.8661994 416.8807,83.991 C416.9665,84.1158006 417.0094,84.2561992 417.0094,84.4122 C417.0094,84.5994009 416.950901,84.7592993 416.8339,84.8919 C416.716899,85.0245007 416.564801,85.0908 416.3776,85.0908 C416.081199,85.0283997 415.722402,84.9777002 415.3012,84.9387 C414.879998,84.8996998 414.474402,84.8802 414.0844,84.8802 C413.257596,84.8802 412.696001,84.977699 412.3996,85.1727 C412.103199,85.367701 411.955,85.6757979 411.955,86.097 C411.955,86.4090016 412.091499,86.6585991 412.3645,86.8458 C412.637501,87.0330009 412.976798,87.1928993 413.3824,87.3255 C413.788002,87.4581007 414.228698,87.5867994 414.7045,87.7116 C415.180302,87.8364006 415.620998,88.0040989 416.0266,88.2147 C416.432202,88.4253011 416.771499,88.6943984 417.0445,89.022 C417.317501,89.3496016 417.454,89.7785973 417.454,90.309 C417.454,91.3386051 417.192703,92.0639979 416.6701,92.4852 C416.147497,92.9064021 415.254406,93.117 413.9908,93.117 C413.616398,93.117 413.183502,93.0936002 412.6921,93.0468 C412.200698,92.9999998 411.752202,92.9298005 411.3466,92.8362 Z" id="building-blocks" fill-opacity="0.87" fill="#1F1F1F"></path>
                    <rect id="Rectangle-4" fill="url(#linearGradient-3)" x="427" y="52" width="20" height="20" rx="4.5"></rect>
                </g>
            </g>
        </g>
    </g>
</svg>