<?xml version="1.0" encoding="UTF-8"?>
<svg width="82px" height="82px" viewBox="0 0 82 82" version="1.1" xmlns="http://www.w3.org/2000/svg" xmlns:xlink="http://www.w3.org/1999/xlink">
    <!-- Generator: Sketch 44.1 (41455) - http://www.bohemiancoding.com/sketch -->
    <title>Group 7</title>
    <desc>Created with Sketch.</desc>
    <defs>
        <linearGradient x1="75.0285948%" y1="21.0964013%" x2="19.5653258%" y2="83.598735%" id="linearGradient-1">
            <stop stop-color="#F27F33" offset="0%"></stop>
            <stop stop-color="#DC1881" offset="100%"></stop>
        </linearGradient>
        <linearGradient x1="82.2817307%" y1="0%" x2="26.4254142%" y2="86.6432312%" id="linearGradient-2">
            <stop stop-color="#F27F33" offset="0%"></stop>
            <stop stop-color="#DC1881" offset="100%"></stop>
        </linearGradient>
    </defs>
    <g id="Page-1" stroke="none" stroke-width="1" fill="none" fill-rule="evenodd">
        <g id="final" transform="translate(-273.000000, -210.000000)">
            <g id="Group" transform="translate(273.000000, 198.000000)">
                <g id="Group-7" transform="translate(0.000000, 12.000000)">
                    <path d="M71.4811552,21.5813625 L68.1081181,12.3140195 L68.1081181,12.3140195 C65.3075819,4.61960948 57.6992679,0.0649103836 49.9104303,0.807646341 C51.1724352,1.54945836 52.3617978,2.46200515 53.4450793,3.54528672 L53.4450793,3.54528672 L71.4811552,21.5813625 Z M81.1923537,49.9104303 C81.9350896,57.6992679 77.3803905,65.3075819 69.6859805,68.1081181 L60.4186375,71.4811552 L78.4547133,53.4450793 C79.5379948,52.3617978 80.4505416,51.1724352 81.1923537,49.9104303 Z M32.0895697,81.1923537 C24.3007321,81.9350896 16.6924181,77.3803905 13.8918819,69.6859805 L10.5188448,60.4186375 L28.5549207,78.4547133 C29.6382022,79.5379948 30.8275648,80.4505416 32.0895697,81.1923537 Z M0.807646341,32.0895697 C0.0649103836,24.3007321 4.61960948,16.6924181 12.3140195,13.8918819 L21.5813625,10.5188448 L3.54528672,28.5549207 C2.46200515,29.6382022 1.54945836,30.8275648 0.807646341,32.0895697 Z" id="Combined-Shape" fill="url(#linearGradient-1)" opacity="0.5"></path>
                    <path d="M52.6401914,7.06556887 L75.5873969,30.0127744 C81.8357855,36.261163 81.8357855,46.3918027 75.5873969,52.6401914 L52.6401914,75.5873969 C46.3918027,81.8357855 36.261163,81.8357855 30.0127744,75.5873969 L7.06556887,52.6401914 C0.817180201,46.3918027 0.817180201,36.261163 7.06556887,30.0127744 L30.0127744,7.06556887 L30.0127744,7.06556887 C36.261163,0.817180201 46.3918027,0.817180201 52.6401914,7.06556887 L52.6401914,7.06556887 Z M34.7944759,28.3944759 C31.2598535,28.3944759 28.3944759,31.2598535 28.3944759,34.7944759 L28.3944759,47.7199661 C28.3944759,51.2545885 31.2598535,54.1199661 34.7944759,54.1199661 L47.7199661,54.1199661 C51.2545885,54.1199661 54.1199661,51.2545885 54.1199661,47.7199661 L54.1199661,34.7944759 C54.1199661,31.2598535 51.2545885,28.3944759 47.7199661,28.3944759 L34.7944759,28.3944759 Z" id="Combined-Shape" fill="url(#linearGradient-2)"></path>
                </g>
            </g>
        </g>
    </g>
</svg>