<svg xmlns="http://www.w3.org/2000/svg" xmlns:xlink="http://www.w3.org/1999/xlink" width="894" height="196"><defs><linearGradient id="prefix__c" gradientUnits="userSpaceOnUse" x1=".75" y1=".211" x2=".196" y2=".836" gradientTransform="translate(1.617 1.617) scale(160.76563)"><stop offset="0" stop-color="#f27f33"/><stop offset="1" stop-color="#dc1881"/></linearGradient><linearGradient id="prefix__f" gradientUnits="userSpaceOnUse" x1=".823" y1="0" x2=".264" y2=".866" gradientTransform="translate(4.758 4.758) scale(155.78906)"><stop offset="0" stop-color="#f27f33"/><stop offset="1" stop-color="#dc1881"/></linearGradient><linearGradient id="prefix__g" gradientUnits="userSpaceOnUse" x1=".264" y1="0" x2=".5" y2="1" gradientTransform="matrix(40 0 0 40 854 104)"><stop offset="0" stop-color="#f27f33"/><stop offset="1" stop-color="#dc1881"/></linearGradient><clipPath id="prefix__b"><path d="M0 0h894v196H0z"/></clipPath><filter id="prefix__a" filterUnits="objectBoundingBox" x="0%" y="0%" width="100%" height="100%"><feColorMatrix in="SourceGraphic" values="0 0 0 0 1 0 0 0 0 1 0 0 0 0 1 0 0 0 1 0"/></filter><mask id="prefix__e"><g filter="url(#prefix__a)"><path fill-opacity=".502" d="M0 0h894v196H0z"/></g></mask><g id="prefix__d" clip-path="url(#prefix__b)"><path d="M142.96 43.164l-6.745-18.535C130.613 9.239 115.398.129 99.82 1.617a35.284 35.284 0 017.07 5.473zm19.423 56.656c1.488 15.578-7.621 30.793-23.012 36.395l-18.535 6.746 36.074-36.07a35.284 35.284 0 005.473-7.07zM64.18 162.383c-15.578 1.488-30.793-7.621-36.395-23.012l-6.746-18.535 36.07 36.074a35.284 35.284 0 007.07 5.473zM1.617 64.18C.13 48.602 9.238 33.387 24.63 27.785l18.535-6.746L7.09 57.11a35.284 35.284 0 00-5.473 7.07zm0 0" fill-rule="evenodd" fill="url(#prefix__c)"/></g></defs><use xlink:href="#prefix__d" mask="url(#prefix__e)"/><path d="M105.281 14.133l45.895 45.894c12.496 12.496 12.496 32.758 0 45.254l-45.895 45.895c-12.496 12.496-32.758 12.496-45.254 0L14.133 105.28c-12.5-12.496-12.5-32.758 0-45.254l45.894-45.894c12.496-12.5 32.758-12.5 45.254 0zM69.59 56.789c-7.07 0-12.8 5.73-12.8 12.8v25.852c0 7.067 5.73 12.797 12.8 12.797h25.85c7.067 0 12.797-5.73 12.797-12.797V69.59c0-7.07-5.73-12.8-12.797-12.8zm0 0" fill-rule="evenodd" fill="url(#prefix__f)"/><path d="M234.387 16.402c2.183.782 3.273 2.418 3.273 4.914 0 1.247-.504 2.38-1.52 3.395-1.011 1.012-2.222 1.52-3.624 1.52-2.188-.313-4.098-.47-5.735-.47h-4.562c-2.965 0-5.305.274-7.02.821-1.719.547-3.004 1.598-3.863 3.156-.856 1.563-1.402 3.707-1.637 6.438-.234 2.73-.351 6.277-.351 10.644v3.98h21.761c1.563 0 2.809.509 3.746 1.52.934 1.016 1.403 2.301 1.403 3.864 0 3.43-1.715 5.144-5.149 5.144h-21.761v77.457c0 1.559-.547 2.887-1.637 3.977-1.094 1.093-2.418 1.636-3.98 1.636-1.56 0-2.883-.543-3.977-1.636-1.094-1.09-1.637-2.418-1.637-3.977V61.328h-11.469c-3.43 0-5.144-1.715-5.144-5.144 0-1.563.465-2.848 1.402-3.864.938-1.011 2.184-1.52 3.742-1.52h11.47v-3.98c0-6.238.429-11.386 1.284-15.441.86-4.059 2.145-7.293 3.864-9.711 1.714-2.418 3.976-4.098 6.785-5.031 2.808-.938 6.16-1.407 10.062-1.407.934 0 2.77.04 5.496.118 2.73.078 5.657.43 8.778 1.054zm41.496 33.227c9.047 0 16.066.976 21.058 2.926 4.993 1.949 8.7 4.601 11.118 7.957 2.418 3.351 3.898 7.293 4.445 11.816.547 4.524.816 9.36.816 14.508v21.527c0 5.149-.27 9.985-.816 14.508-.547 4.524-2.027 8.465-4.445 11.817-2.418 3.355-6.125 6.007-11.118 7.957-4.992 1.949-12.011 2.925-21.058 2.925-9.051 0-16.11-.976-21.18-2.925-5.066-1.95-8.812-4.602-11.23-7.958-2.418-3.351-3.86-7.292-4.328-11.816-.47-4.523-.704-9.36-.704-14.508V86.836c0-5.148.235-9.984.704-14.508.468-4.523 1.91-8.465 4.328-11.816 2.418-3.356 6.164-6.008 11.23-7.957 5.07-1.95 12.129-2.926 21.18-2.926zM302.09 87.07c0-4.836-.156-8.968-.469-12.402-.312-3.434-1.285-6.2-2.926-8.309-1.636-2.105-4.21-3.664-7.718-4.68-3.512-1.011-8.543-1.519-15.094-1.519-6.555 0-11.621.469-15.211 1.403-3.586.937-6.2 2.496-7.84 4.68-1.637 2.187-2.574 4.991-2.809 8.425-.234 3.434-.347 7.566-.347 12.402v21.059c0 4.836.113 8.933.347 12.285.235 3.356 1.172 6.125 2.809 8.309 1.64 2.183 4.254 3.78 7.84 4.797 3.59 1.011 8.656 1.52 15.21 1.52 6.552 0 11.583-.509 15.095-1.52 3.507-1.016 6.082-2.614 7.718-4.797 1.64-2.184 2.614-4.953 2.926-8.309.313-3.352.469-7.45.469-12.285zm83.617 49.61c-1.719 2.183-3.707 3.898-5.969 5.144-2.261 1.25-4.601 2.149-7.02 2.692-2.417.547-4.952.859-7.605.937-2.652.078-5.148.117-7.488.117-6.238 0-11.465-.898-15.676-2.691-4.215-1.793-7.605-4.25-10.18-7.371-2.574-3.121-4.406-6.824-5.5-11.113-1.09-4.293-1.636-8.934-1.636-13.926V56.414c0-1.559.547-2.883 1.637-3.977 1.093-1.09 2.418-1.636 3.976-1.636 1.563 0 2.887.547 3.98 1.636 1.09 1.094 1.637 2.418 1.637 3.977v49.61c0 3.746.117 7.331.352 10.765.234 3.43 1.133 6.512 2.691 9.242 1.559 2.73 4.016 4.914 7.371 6.551 3.356 1.64 8.153 2.457 14.391 2.457 10.453 0 17.668-1.832 21.644-5.5 3.981-3.664 5.97-9.476 5.97-17.43V56.414c0-1.559.542-2.883 1.636-3.977 1.094-1.09 2.418-1.636 3.977-1.636 1.562 0 2.886.547 3.98 1.636 1.09 1.094 1.637 2.418 1.637 3.977v82.371c0 1.559-.547 2.887-1.637 3.977-1.094 1.093-2.418 1.636-3.98 1.636-1.56 0-2.883-.62-3.977-1.87-1.094-1.247-1.793-3.2-2.106-5.848zm44.07-78.157h1.871c1.715-2.183 3.704-3.902 5.965-5.148a26.65 26.65 0 017.024-2.691 39.71 39.71 0 017.601-.938c2.653-.078 5.149-.117 7.489-.117 6.242 0 11.468.898 15.68 2.691 4.21 1.793 7.605 4.25 10.179 7.371 2.574 3.121 4.406 6.825 5.5 11.118 1.09 4.289 1.637 8.93 1.637 13.921v54.055c0 1.559-.547 2.887-1.637 3.977-1.094 1.093-2.422 1.636-3.98 1.636-1.56 0-2.887-.543-3.977-1.636-1.094-1.09-1.64-2.418-1.64-3.977v-49.61c0-3.741-.118-7.331-.348-10.765-.235-3.43-1.133-6.512-2.692-9.242-1.562-2.73-4.02-4.914-7.37-6.55-3.356-1.638-8.153-2.458-14.392-2.458-5.304 0-9.71.469-13.222 1.403-3.512.937-6.317 2.34-8.426 4.214-2.105 1.871-3.625 4.25-4.562 7.137-.934 2.887-1.403 6.277-1.403 10.18v55.691c0 1.559-.547 2.887-1.637 3.977-1.093 1.093-2.417 1.636-3.98 1.636-1.559 0-2.887-.543-3.977-1.636-1.093-1.09-1.636-2.418-1.636-3.977V56.648c0-1.714.543-3.117 1.636-4.21 1.09-1.09 2.497-1.637 4.211-1.637 1.715 0 3.16.547 4.329 1.636 1.171 1.094 1.757 2.497 1.757 4.211zm86.657 49.84c0 2.965.117 6.047.351 9.242.235 3.2 1.168 6.086 2.809 8.66 1.636 2.575 4.25 4.68 7.84 6.317 3.586 1.64 8.656 2.457 15.207 2.457 6.554 0 11.586-.816 15.093-2.457 3.512-1.637 6.086-3.742 7.723-6.316 1.637-2.575 2.574-5.461 2.809-8.66.234-3.196.351-6.278.351-9.243v-25.27c0-2.964-.43-5.812-1.289-8.542-.855-2.73-2.418-5.149-4.68-7.254-2.261-2.106-5.265-3.82-9.007-5.149-3.746-1.324-8.426-1.988-14.04-1.988-5.773 0-10.218.82-13.34 2.457-3.12 1.637-5.421 3.781-6.902 6.434-1.48 2.652-2.34 5.578-2.574 8.777a126.473 126.473 0 00-.351 9.242zm63.414 30.422c0 1.559-.547 2.887-1.637 3.977-1.094 1.093-2.418 1.636-3.98 1.636-1.56 0-2.883-.543-3.977-1.636-1.094-1.09-1.637-2.418-1.637-3.977v-3.043c-1.875 2.496-3.941 4.406-6.203 5.735-2.262 1.324-4.562 2.3-6.902 2.921-2.34.625-4.602.977-6.785 1.055a170.9 170.9 0 01-6.086.117c-9.203 0-16.301-.976-21.293-2.925-4.993-1.95-8.696-4.602-11.114-7.958-2.418-3.351-3.863-7.253-4.332-11.699-.464-4.445-.699-9.242-.699-14.39V86.836c0-5.148.195-9.984.582-14.508.39-4.523 1.68-8.465 3.863-11.816 2.184-3.356 5.618-6.008 10.297-7.957 4.68-1.95 11.387-2.926 20.121-2.926.938 0 2.575.039 4.914.117 2.34.078 4.875.39 7.606.938a35.029 35.029 0 018.074 2.691c2.653 1.246 4.68 2.965 6.082 5.148h1.875v-33.93c0-1.562.543-2.886 1.637-3.98 1.094-1.09 2.418-1.636 3.976-1.636 1.563 0 2.887.546 3.98 1.636 1.09 1.094 1.638 2.418 1.638 3.98zm44.539-3.746c7.02 0 13.023-1.48 18.015-4.445a52.318 52.318 0 0013.106-10.996V99.94c-2.34-.312-5.305-.468-8.89-.468h-8.192c-4.68 0-9.125.078-13.336.234-4.215.156-7.918.777-11.117 1.871-3.2 1.094-5.735 2.77-7.606 5.031-1.87 2.262-2.808 5.5-2.808 9.711 0 12.325 6.941 18.563 20.828 18.72zm-19.188-82.836c7.797-1.715 15.13-2.574 21.996-2.574 5.926 0 11.348.547 16.262 1.64 4.914 1.09 9.086 2.922 12.52 5.497 3.43 2.574 6.082 6.007 7.957 10.297 1.87 4.289 2.804 9.71 2.804 16.261v55.461c0 1.559-.543 2.887-1.636 3.977-1.09 1.093-2.418 1.636-3.977 1.636-1.563 0-2.887-.543-3.98-1.636-1.09-1.09-1.637-2.418-1.637-3.977v-6.789c-4.836 5.93-9.828 9.676-14.977 11.234a54.618 54.618 0 01-15.91 2.34c-11.234 0-19.422-2.105-24.57-6.316-5.149-4.215-7.723-11.703-7.723-22.465 0-5.148 1.055-9.516 3.16-13.105 2.106-3.586 4.914-6.473 8.422-8.657 3.512-2.183 7.45-3.746 11.817-4.68a63.423 63.423 0 0113.34-1.406c4.054 0 8.382.391 12.988 1.172 4.601.778 8.539 1.871 11.816 3.274h1.637V83.094c0-4.371-.82-8.035-2.457-11s-3.86-5.305-6.668-7.02c-2.809-1.715-6.047-2.965-9.711-3.746-3.668-.777-7.527-1.168-11.582-1.168-6.399 0-12.246.547-17.55 1.637-.313.156-.86.234-1.642.234-1.402 0-2.574-.468-3.507-1.402-.938-.938-1.407-2.106-1.407-3.512 0-1.246.391-2.3 1.172-3.156.782-.86 1.793-1.445 3.043-1.758zm84.785-23.633c0-1.558.547-2.886 1.637-3.976 1.094-1.094 2.418-1.64 3.98-1.64 1.56 0 2.883.546 3.977 1.64 1.094 1.09 1.637 2.418 1.637 3.976V50.8h18.254c1.558 0 2.808.509 3.742 1.52.937 1.016 1.406 2.301 1.406 3.864 0 3.43-1.719 5.144-5.148 5.144h-18.254v55.93c0 3.117.117 5.73.351 7.836.235 2.105.899 3.824 1.989 5.148 1.093 1.328 2.652 2.262 4.68 2.809 2.03.547 4.913.82 8.66.82h2.808c1.402 0 2.613.508 3.625 1.52 1.016 1.015 1.524 2.222 1.524 3.629 0 1.402-.508 2.652-1.524 3.742-1.012 1.093-2.223 1.636-3.625 1.636h-2.574c-5.149 0-9.438-.425-12.871-1.285-3.434-.86-6.2-2.3-8.309-4.328-2.105-2.027-3.625-4.797-4.562-8.308-.934-3.508-1.403-7.918-1.403-13.22V61.329H676.18c-3.434 0-5.149-1.715-5.149-5.144 0-1.563.465-2.848 1.403-3.864.937-1.011 2.183-1.52 3.746-1.52h13.804zm44.305 27.844c0-1.559.547-2.883 1.637-3.977 1.094-1.09 2.418-1.636 3.976-1.636 1.563 0 2.887.547 3.98 1.636 1.09 1.094 1.638 2.418 1.638 3.977v82.371c0 1.559-.547 2.887-1.637 3.977-1.094 1.093-2.418 1.636-3.98 1.636-1.56 0-2.883-.543-3.977-1.636-1.09-1.09-1.637-2.418-1.637-3.977zm0-29.25c0-1.559.547-2.883 1.637-3.977 1.094-1.09 2.418-1.636 3.976-1.636 1.563 0 2.887.547 3.98 1.637 1.09 1.093 1.638 2.417 1.638 3.976v4.215c0 1.558-.547 2.887-1.637 3.976-1.094 1.094-2.418 1.637-3.98 1.637-1.56 0-2.883-.543-3.977-1.637-1.09-1.09-1.637-2.417-1.637-3.976zm63.492 22.465c9.047 0 16.067.976 21.059 2.926 4.992 1.949 8.695 4.601 11.113 7.957 2.418 3.351 3.902 7.293 4.45 11.816.542 4.524.816 9.36.816 14.508v21.527c0 5.149-.274 9.985-.817 14.508-.547 4.524-2.03 8.465-4.449 11.817-2.418 3.355-6.121 6.007-11.113 7.957-4.992 1.949-12.012 2.925-21.059 2.925-9.05 0-16.11-.976-21.18-2.925-5.07-1.95-8.812-4.602-11.23-7.958-2.418-3.351-3.86-7.292-4.328-11.816-.469-4.523-.703-9.36-.703-14.508V86.836c0-5.148.234-9.984.703-14.508.469-4.523 1.91-8.465 4.328-11.816 2.418-3.356 6.16-6.008 11.23-7.957 5.07-1.95 12.13-2.926 21.18-2.926zm26.207 37.441c0-4.836-.156-8.968-.468-12.402-.313-3.434-1.286-6.2-2.926-8.309-1.637-2.105-4.211-3.664-7.723-4.68-3.508-1.011-8.539-1.519-15.09-1.519-6.554 0-11.625.469-15.21 1.403-3.59.937-6.204 2.496-7.84 4.68-1.637 2.187-2.575 4.991-2.81 8.425-.234 3.434-.35 7.566-.35 12.402v21.059c0 4.836.116 8.933.35 12.285.235 3.356 1.173 6.125 2.81 8.309 1.636 2.183 4.25 3.78 7.84 4.797 3.585 1.011 8.656 1.52 15.21 1.52 6.551 0 11.582-.509 15.09-1.52 3.512-1.016 6.086-2.614 7.723-4.797 1.64-2.184 2.613-4.953 2.926-8.309.312-3.352.468-7.45.468-12.285zm-199.336 87.559c0-.531-.023-1.086-.07-1.664a3.983 3.983 0 00-.445-1.567c-.25-.468-.64-.859-1.172-1.171-.528-.309-1.293-.465-2.293-.465-.996 0-1.817.117-2.457.351-.637.23-1.145.543-1.52.934-.375.39-.64.828-.797 1.312a4.74 4.74 0 00-.234 1.473v4.82c0 .532.024 1.086.07 1.66.047.579.211 1.102.493 1.57.28.466.726.856 1.336 1.169.605.312 1.472.469 2.597.469 1.121 0 1.988-.157 2.594-.47.61-.312 1.055-.702 1.336-1.167.281-.469.445-.992.492-1.57.047-.575.07-1.13.07-1.66zm-12.027-12.215c0-.437.14-.797.418-1.078.281-.281.64-.422 1.078-.422.438 0 .805.14 1.102.422.293.281.441.64.441 1.078v6.316h.422c.281-.406.64-.726 1.078-.96.438-.23.879-.403 1.332-.512.453-.11.875-.172 1.266-.188.39-.015.66-.023.816-.023 1.781 0 3.152.195 4.121.586.965.387 1.668.926 2.106 1.613.437.688.695 1.48.773 2.387.074.906.113 1.887.113 2.949v4.117c0 1.063-.046 2.051-.136 2.973-.094.918-.383 1.715-.867 2.387-.485.671-1.235 1.199-2.247 1.59-1.015.39-2.441.585-4.28.585a9.228 9.228 0 01-2.34-.304c-.782-.203-1.5-.664-2.157-1.38 0 .434-.148.786-.441 1.052-.297.265-.664.398-1.102.398-.437 0-.797-.14-1.078-.422-.277-.281-.418-.64-.418-1.074zm30.105 22.137c-.652.84-1.457 1.332-2.41 1.472-.949.141-1.894.211-2.832.211-1.152 0-2.129-.18-2.922-.539a5.285 5.285 0 01-1.968-1.496 6.167 6.167 0 01-1.121-2.246c-.235-.86-.352-1.805-.352-2.832v-10.344c0-.437.14-.797.422-1.074.281-.281.64-.422 1.074-.422.438 0 .805.14 1.102.422.297.277.445.637.445 1.074v9.5c0 .625.023 1.25.07 1.871a4.23 4.23 0 00.469 1.688c.262.5.684.902 1.262 1.215.578.312 1.394.469 2.457.469 1.808 0 3.058-.313 3.746-.938.683-.621 1.027-1.621 1.027-2.992v-10.813c0-.437.14-.797.422-1.074.281-.281.64-.422 1.074-.422.438 0 .805.14 1.102.422.297.277.445.637.445 1.074v15.868-.141c0 .434-.148.793-.445 1.074a1.542 1.542 0 01-1.102.422c-.433 0-.793-.133-1.074-.398-.281-.266-.422-.618-.422-1.051zm8.348-15.774c0-.437.14-.797.422-1.074.281-.281.637-.422 1.074-.422.438 0 .805.14 1.102.422.297.277.445.637.445 1.074v15.727c0 .434-.148.793-.445 1.074a1.542 1.542 0 01-1.102.422c-.437 0-.793-.14-1.074-.422-.281-.281-.422-.64-.422-1.074zm0-6.644c0-.438.14-.797.422-1.078.281-.282.637-.422 1.074-.422.438 0 .805.14 1.102.422.297.28.445.64.445 1.078v.933c0 .438-.148.797-.445 1.079-.297.28-.664.421-1.102.421-.437 0-.793-.14-1.074-.421-.281-.282-.422-.641-.422-1.079zm7.879.281c0-.437.14-.797.418-1.078.281-.281.64-.422 1.078-.422.438 0 .805.14 1.102.422.293.281.441.64.441 1.078v22.09c0 .434-.148.793-.441 1.074a1.542 1.542 0 01-1.102.422c-.437 0-.797-.14-1.078-.422-.277-.281-.418-.64-.418-1.074zm10.215 16.238c0 .532.023 1.086.07 1.66.047.579.211 1.102.492 1.57.282.466.727.856 1.336 1.169.606.312 1.473.469 2.598.469 1.121 0 1.988-.157 2.598-.47.605-.312 1.05-.702 1.332-1.167.28-.469.445-.992.492-1.57.047-.575.07-1.13.07-1.66v-4.821c0-.5-.078-.992-.234-1.473a3.378 3.378 0 00-.797-1.312c-.375-.39-.887-.703-1.543-.934-.656-.234-1.469-.351-2.434-.351-1 0-1.761.156-2.293.465-.53.312-.922.703-1.172 1.171-.25.47-.398.993-.445 1.567-.047.578-.07 1.133-.07 1.664zm12.031 5.852c0 .434-.14.793-.422 1.074-.281.281-.64.422-1.078.422-.437 0-.805-.133-1.098-.398-.296-.266-.445-.618-.445-1.051-.656.715-1.375 1.176-2.152 1.379a9.274 9.274 0 01-2.34.304c-1.844 0-3.27-.195-4.285-.586-1.012-.39-1.762-.918-2.246-1.59-.485-.671-.77-1.468-.864-2.386a29.42 29.42 0 01-.14-2.973v-4.117c0-1.062.039-2.043.117-2.95.078-.905.336-1.698.77-2.386.437-.687 1.14-1.226 2.105-1.613.969-.39 2.34-.586 4.121-.586.156 0 .43.008.817.023.39.016.812.078 1.265.188.453.11.899.281 1.332.512.438.234.797.554 1.078.96h.422v-6.316c0-.437.149-.797.445-1.078.293-.281.66-.422 1.098-.422.438 0 .797.14 1.078.422.282.281.422.64.422 1.078zm4.836-15.727c0-.437.137-.797.418-1.074.281-.281.64-.422 1.078-.422.438 0 .805.14 1.098.422.297.277.445.637.445 1.074v15.727c0 .434-.148.793-.445 1.074-.293.281-.66.422-1.098.422-.437 0-.797-.14-1.078-.422-.281-.281-.418-.64-.418-1.074zm0-6.644c0-.438.137-.797.418-1.078.281-.282.64-.422 1.078-.422.438 0 .805.14 1.098.422.297.28.445.64.445 1.078v.933c0 .438-.148.797-.445 1.079-.293.28-.66.421-1.098.421-.437 0-.797-.14-1.078-.421-.281-.282-.418-.641-.418-1.079zm11.387 6.597c.656-.843 1.457-1.332 2.41-1.472.95-.14 1.894-.211 2.832-.211 1.152 0 2.129.18 2.926.539a5.216 5.216 0 011.965 1.496c.511.64.886 1.387 1.12 2.246.235.86.352 1.8.352 2.832v10.344c0 .434-.148.793-.445 1.074a1.53 1.53 0 01-1.098.422c-.437 0-.797-.14-1.078-.422-.281-.281-.422-.64-.422-1.074v-9.5c0-.625-.023-1.25-.07-1.875a4.291 4.291 0 00-.465-1.684c-.265-.5-.687-.906-1.265-1.218-.579-.309-1.395-.465-2.458-.465-1.808 0-3.058.312-3.742.933-.687.625-1.031 1.625-1.031 2.996v10.813c0 .434-.148.793-.445 1.074a1.537 1.537 0 01-1.098.422c-.437 0-.797-.14-1.078-.422-.281-.281-.422-.64-.422-1.074v-15.727c0-.437.14-.797.422-1.074.281-.281.64-.422 1.078-.422.434 0 .8.133 1.098.399.297.261.445.613.445 1.05zm27.3 5.102c0-.5-.078-.992-.234-1.473a3.378 3.378 0 00-.797-1.312c-.375-.39-.89-.703-1.543-.934-.656-.234-1.468-.351-2.433-.351-1 0-1.766.156-2.293.465-.531.312-.922.703-1.172 1.171-.25.47-.399.993-.445 1.567-.047.578-.07 1.133-.07 1.664v4.023c0 .532.023 1.086.07 1.66a3.54 3.54 0 00.492 1.57c.281.466.726.856 1.336 1.169.605.312 1.472.469 2.593.469 1.125 0 1.993-.157 2.598-.47.61-.312 1.055-.702 1.336-1.167.281-.469.445-.992.492-1.57.047-.575.07-1.13.07-1.66zm-9.734 20.36a1.8 1.8 0 01-.96-.47 1.183 1.183 0 01-.4-.89c0-.375.134-.695.4-.957a1.31 1.31 0 01.96-.398 18.3 18.3 0 002.48.328c.903.062 1.684.093 2.34.093 1.434 0 2.614-.289 3.532-.867.922-.578 1.383-1.613 1.383-3.113v-3.367c-.657.715-1.375 1.176-2.153 1.379a9.281 9.281 0 01-2.344.304c-1.84 0-3.265-.195-4.28-.586-1.013-.39-1.763-.918-2.247-1.59-.484-.671-.773-1.468-.863-2.386a29.42 29.42 0 01-.14-2.973v-4.117c0-1.062.038-2.043.116-2.95.079-.905.332-1.698.77-2.386.437-.687 1.14-1.226 2.105-1.613.97-.39 2.34-.586 4.121-.586.157 0 .426.008.817.023.39.016.812.078 1.266.188.453.11.894.281 1.332.512.437.234.796.554 1.078.96h.422c0-.437.14-.789.418-1.05.28-.266.64-.399 1.078-.399.437 0 .804.14 1.101.422.293.277.442.637.442 1.074v18.86c0 1.312-.188 2.41-.559 3.3-.375.891-.914 1.606-1.617 2.153-.7.547-1.543.937-2.528 1.172-.98.234-2.082.347-3.296.347a34.35 34.35 0 01-2.246-.09 21.34 21.34 0 01-2.528-.328zm37.516-19.563c0-.531-.024-1.086-.07-1.664a3.983 3.983 0 00-.446-1.567c-.246-.468-.637-.859-1.168-1.171-.531-.309-1.297-.465-2.293-.465-1 0-1.816.117-2.457.351-.64.23-1.148.543-1.52.934-.374.39-.64.828-.796 1.312a4.74 4.74 0 00-.235 1.473v4.82c0 .532.024 1.086.07 1.66a3.58 3.58 0 00.493 1.57c.281.466.723.856 1.332 1.169.61.312 1.477.469 2.598.469 1.125 0 1.988-.157 2.597-.47.61-.312 1.055-.702 1.332-1.167.282-.469.446-.992.492-1.57.047-.575.07-1.13.07-1.66zm-12.028-12.215c0-.437.141-.797.422-1.078.282-.281.641-.422 1.078-.422.434 0 .801.14 1.098.422.297.281.445.64.445 1.078v6.316h.422c.282-.406.64-.726 1.075-.96a5.77 5.77 0 011.335-.512c.454-.11.872-.172 1.262-.188a24 24 0 01.82-.023c1.778 0 3.153.195 4.118.586.968.387 1.672.926 2.105 1.613.438.688.695 1.48.774 2.387.078.906.117 1.887.117 2.949v4.117c0 1.063-.047 2.051-.14 2.973-.095.918-.384 1.715-.868 2.387-.48.671-1.23 1.199-2.246 1.59-1.012.39-2.442.585-4.281.585a9.251 9.251 0 01-2.34-.304c-.781-.203-1.496-.664-2.153-1.38 0 .434-.148.786-.445 1.052-.297.265-.664.398-1.098.398-.437 0-.796-.14-1.078-.422-.28-.281-.422-.64-.422-1.074zm19.204 0c0-.437.14-.797.421-1.078.282-.281.641-.422 1.079-.422.437 0 .8.14 1.097.422.297.281.446.64.446 1.078v22.09c0 .434-.149.793-.446 1.074a1.53 1.53 0 01-1.097.422c-.438 0-.797-.14-1.079-.422-.28-.281-.421-.64-.421-1.074zm14.71 4.633c1.844 0 3.27.195 4.286.586 1.011.387 1.761.926 2.246 1.613.48.688.77 1.48.863 2.387.094.906.14 1.887.14 2.949v4.117c0 1.063-.046 2.051-.14 2.973-.094.918-.383 1.715-.863 2.387-.485.671-1.235 1.199-2.246 1.59-1.016.39-2.442.585-4.285.585-1.84 0-3.266-.195-4.282-.586-1.015-.39-1.761-.918-2.246-1.59-.484-.671-.773-1.468-.867-2.386a29.42 29.42 0 01-.14-2.973v-4.117c0-1.062.046-2.043.14-2.95.094-.905.383-1.698.867-2.386.485-.687 1.23-1.226 2.246-1.613 1.016-.39 2.442-.586 4.282-.586zm4.493 7.582c0-.531-.024-1.086-.07-1.664a3.564 3.564 0 00-.489-1.567c-.281-.468-.726-.859-1.336-1.171-.61-.309-1.472-.465-2.597-.465-1.122 0-1.989.156-2.598.465-.606.312-1.05.703-1.332 1.171a3.568 3.568 0 00-.492 1.567c-.047.578-.07 1.133-.07 1.664v4.023c0 .532.023 1.086.07 1.66.047.579.21 1.102.492 1.57.281.466.726.856 1.332 1.169.61.312 1.476.469 2.598.469 1.125 0 1.988-.157 2.597-.47.61-.312 1.055-.702 1.336-1.167.281-.469.442-.992.488-1.57.047-.575.07-1.13.07-1.66zm19.343 8.469c.375 0 .68.132.915.398.234.266.351.586.351.961 0 .313-.086.59-.258.84a1.11 1.11 0 01-.726.469c-.809.156-1.7.273-2.668.351-.965.078-1.793.117-2.48.117-1.216 0-2.317-.117-3.298-.351-.984-.235-1.824-.625-2.527-1.168-.703-.547-1.242-1.266-1.613-2.156-.375-.887-.563-1.989-.563-3.297v-5.242c0-1.313.188-2.41.563-3.301.37-.887.91-1.606 1.613-2.153.703-.546 1.543-.933 2.527-1.168.98-.234 2.082-.351 3.297-.351.719 0 1.555.039 2.504.117a24.57 24.57 0 012.645.352c.312.062.554.214.726.464.172.25.258.532.258.844 0 .375-.117.696-.351.961-.235.266-.54.395-.915.395a19.064 19.064 0 00-2.523-.325 36.808 36.808 0 00-2.387-.093c-1.437 0-2.613.289-3.535.863-.922.578-1.379 1.617-1.379 3.113v5.805c0 1.496.457 2.535 1.38 3.11.921.577 2.097.867 3.534.867.653 0 1.45-.032 2.387-.094a18.4 18.4 0 002.523-.328zm18.364-15.536a1.58 1.58 0 01.89-.28c.465 0 .871.218 1.215.652.188.28.281.578.281.89 0 .531-.203.938-.609 1.219l-4.492 3.46 5.383 10.438c.031.094.047.235.047.422 0 .344-.094.645-.282.91a1.636 1.636 0 01-.75.586 1.34 1.34 0 01-.605.141c-.625 0-1.063-.328-1.313-.984l-4.96-9.641-5.243 3.887v5.242c0 .434-.148.793-.445 1.074-.293.281-.66.422-1.098.422-.437 0-.797-.14-1.078-.422-.281-.281-.422-.64-.422-1.074v-22.09c0-.437.14-.797.422-1.078.281-.281.64-.422 1.078-.422.438 0 .805.14 1.098.422.297.281.445.64.445 1.078v13.102zm6.097 18.11c-.902-.188-1.355-.672-1.355-1.45 0-.374.125-.71.375-1.007.25-.297.594-.445 1.027-.445.375.125.805.234 1.29.328a23.773 23.773 0 002.831.375c.438.03.809.047 1.121.047.813 0 1.477-.063 1.989-.188.515-.125.914-.305 1.195-.539.281-.234.469-.527.563-.887a5.2 5.2 0 00.14-1.289c0-.594-.273-1.074-.82-1.449-.547-.375-1.223-.703-2.035-.984a42.414 42.414 0 00-2.645-.817 13.688 13.688 0 01-2.644-1.031 6.567 6.567 0 01-2.035-1.613c-.547-.657-.82-1.5-.82-2.528 0-1.937.648-3.277 1.94-4.027 1.297-.746 3.051-1.121 5.266-1.121.719 0 1.531.039 2.434.117.906.078 1.75.195 2.527.352.313.062.555.214.727.464.172.25.258.532.258.844 0 .375-.118.696-.352.961-.234.266-.54.395-.914.395a20.132 20.132 0 00-2.152-.301 26.311 26.311 0 00-2.434-.117c-1.652 0-2.777.195-3.367.582-.594.39-.89 1.008-.89 1.851 0 .621.273 1.121.82 1.496.542.375 1.222.696 2.035.961.808.266 1.691.52 2.644.77.95.25 1.832.586 2.645 1.008.808.422 1.488.96 2.035 1.613.547.656.816 1.516.816 2.574 0 2.059-.52 3.512-1.566 4.352-1.043.844-2.832 1.265-5.36 1.265a27.82 27.82 0 01-2.597-.14 20.84 20.84 0 01-2.692-.422zm0 0" fill-rule="evenodd" fill="#1f1f1f" fill-opacity=".871"/><path d="M863 104h22c4.969 0 9 4.031 9 9v22c0 4.969-4.031 9-9 9h-22c-4.969 0-9-4.031-9-9v-22c0-4.969 4.031-9 9-9zm0 0" fill-rule="evenodd" fill="url(#prefix__g)"/></svg>