<svg width="447" height="98" xmlns="http://www.w3.org/2000/svg"><defs><linearGradient x1="75.029%" y1="21.096%" x2="19.565%" y2="83.599%" id="prefix__a"><stop stop-color="#F27F33" offset="0%"/><stop stop-color="#DC1881" offset="100%"/></linearGradient><linearGradient x1="82.282%" y1="0%" x2="26.425%" y2="86.643%" id="prefix__b"><stop stop-color="#F27F33" offset="0%"/><stop stop-color="#DC1881" offset="100%"/></linearGradient><linearGradient x1="26.425%" y1="0%" x2="50%" y2="100%" id="prefix__c"><stop stop-color="#F27F33" offset="0%"/><stop stop-color="#DC1881" offset="100%"/></linearGradient></defs><g fill="none" fill-rule="evenodd"><path d="M71.481 21.581l-3.373-9.267C65.308 4.62 57.7.064 49.91.808a17.63 17.63 0 013.535 2.737l18.036 18.036zm9.711 28.33c.743 7.788-3.812 15.397-11.506 18.197l-9.267 3.373 18.036-18.036a17.63 17.63 0 002.737-3.535zM32.09 81.191c-7.79.743-15.398-3.812-18.198-11.506l-3.373-9.267 18.036 18.036a17.63 17.63 0 003.535 2.737zM.808 32.09C.065 24.3 4.62 16.692 12.314 13.892l9.267-3.373L3.545 28.555A17.63 17.63 0 00.808 32.09z" fill="url(#prefix__a)" opacity=".5"/><path d="M52.64 7.066l22.947 22.947c6.249 6.248 6.249 16.379 0 22.627L52.64 75.587c-6.248 6.249-16.379 6.249-22.627 0L7.066 52.64c-6.249-6.248-6.249-16.379 0-22.627L30.013 7.066C36.26.817 46.392.817 52.64 7.066zM34.794 28.394a6.4 6.4 0 00-6.4 6.4V47.72a6.4 6.4 0 006.4 6.4H47.72a6.4 6.4 0 006.4-6.4V34.794a6.4 6.4 0 00-6.4-6.4H34.794z" fill="url(#prefix__b)"/><path d="M117.193 8.201c1.092.39 1.638 1.209 1.638 2.457 0 .624-.253 1.19-.76 1.696a2.476 2.476 0 01-1.814.761c-1.092-.156-2.047-.234-2.866-.234h-2.282c-1.482 0-2.652.136-3.51.41-.858.272-1.501.799-1.93 1.579-.43.78-.702 1.852-.82 3.217-.116 1.366-.175 3.14-.175 5.324V25.4h10.881c.78 0 1.404.253 1.872.76.468.507.702 1.151.702 1.931 0 1.716-.858 2.574-2.574 2.574h-10.881v38.727c0 .78-.273 1.443-.819 1.989a2.708 2.708 0 01-1.989.819c-.78 0-1.443-.273-1.989-.819a2.708 2.708 0 01-.819-1.989V30.665h-5.733c-1.716 0-2.574-.858-2.574-2.574 0-.78.234-1.424.702-1.93.468-.508 1.092-.761 1.872-.761h5.733v-1.989c0-3.12.215-5.694.644-7.722.429-2.028 1.072-3.646 1.93-4.856a6.633 6.633 0 013.393-2.515c1.404-.468 3.081-.702 5.031-.702.468 0 1.384.02 2.75.058 1.365.04 2.827.215 4.387.527zm20.748 16.614c4.524 0 8.034.487 10.53 1.462 2.496.976 4.348 2.301 5.558 3.978 1.209 1.678 1.95 3.647 2.223 5.909.273 2.262.409 4.68.409 7.254v10.764c0 2.574-.136 4.992-.41 7.254-.272 2.262-1.013 4.231-2.222 5.908-1.21 1.678-3.062 3.003-5.558 3.978-2.496.976-6.006 1.463-10.53 1.463-4.524 0-8.053-.487-10.588-1.463-2.536-.975-4.407-2.3-5.616-3.978-1.21-1.677-1.931-3.646-2.165-5.908a70.641 70.641 0 01-.351-7.254V43.418c0-2.574.117-4.992.351-7.254.234-2.262.955-4.231 2.165-5.909 1.209-1.677 3.08-3.002 5.616-3.978 2.535-.975 6.064-1.462 10.588-1.462zm13.104 18.72c0-2.418-.078-4.485-.234-6.201-.156-1.716-.643-3.1-1.462-4.154-.82-1.053-2.106-1.833-3.861-2.34-1.756-.507-4.271-.76-7.547-.76s-5.811.234-7.605.702c-1.794.468-3.1 1.248-3.92 2.34-.819 1.092-1.286 2.496-1.403 4.212-.117 1.716-.176 3.783-.176 6.201v10.53c0 2.418.059 4.465.176 6.142.117 1.678.584 3.062 1.404 4.154.819 1.092 2.125 1.891 3.919 2.398 1.794.507 4.329.761 7.605.761 3.276 0 5.791-.254 7.547-.76 1.755-.508 3.042-1.307 3.86-2.399.82-1.092 1.307-2.476 1.463-4.154.156-1.677.234-3.724.234-6.142v-10.53zm41.808 24.804c-.858 1.092-1.852 1.95-2.983 2.574a13.308 13.308 0 01-3.51 1.345 19.886 19.886 0 01-3.803.468c-1.326.04-2.574.059-3.744.059-3.12 0-5.733-.448-7.839-1.346-2.106-.897-3.802-2.125-5.09-3.685-1.287-1.56-2.203-3.412-2.749-5.558-.546-2.145-.819-4.465-.819-6.961V28.208c0-.78.273-1.443.819-1.989a2.708 2.708 0 011.989-.819c.78 0 1.443.273 1.989.819.546.546.819 1.209.819 1.989v24.804c0 1.872.059 3.666.176 5.382.117 1.716.565 3.256 1.345 4.621.78 1.366 2.008 2.457 3.686 3.276 1.677.82 4.075 1.229 7.195 1.229 5.226 0 8.833-.916 10.823-2.75 1.989-1.833 2.983-4.738 2.983-8.716V28.208c0-.78.273-1.443.819-1.989a2.708 2.708 0 011.989-.819c.78 0 1.443.273 1.989.819.546.546.819 1.209.819 1.989v41.184c0 .78-.273 1.443-.819 1.989a2.708 2.708 0 01-1.989.819c-.78 0-1.443-.312-1.989-.936-.546-.624-.897-1.599-1.053-2.925h-1.053zm22.035-39.078h.936c.858-1.092 1.852-1.95 2.984-2.574a13.308 13.308 0 013.51-1.346 19.886 19.886 0 013.802-.468c1.326-.039 2.574-.058 3.744-.058 3.12 0 5.733.448 7.839 1.345 2.106.898 3.802 2.126 5.09 3.686 1.287 1.56 2.203 3.412 2.749 5.557.546 2.146.819 4.466.819 6.962v27.027c0 .78-.273 1.443-.819 1.989a2.708 2.708 0 01-1.989.819c-.78 0-1.443-.273-1.989-.819a2.708 2.708 0 01-.819-1.989V44.588c0-1.872-.058-3.666-.175-5.382-.117-1.716-.566-3.256-1.346-4.622-.78-1.365-2.008-2.456-3.685-3.276-1.678-.819-4.076-1.228-7.196-1.228-2.652 0-4.855.234-6.61.702-1.756.468-3.16 1.17-4.212 2.106-1.054.936-1.814 2.125-2.282 3.568-.468 1.444-.702 3.14-.702 5.09v27.846c0 .78-.273 1.443-.819 1.989a2.708 2.708 0 01-1.989.819c-.78 0-1.443-.273-1.989-.819a2.708 2.708 0 01-.819-1.989V28.325c0-.858.273-1.56.819-2.106.546-.546 1.248-.819 2.106-.819.858 0 1.58.273 2.165.819.585.546.877 1.248.877 2.106v.936zm43.329 24.921c0 1.482.059 3.022.176 4.621.117 1.6.584 3.042 1.404 4.33.819 1.287 2.125 2.34 3.919 3.158 1.794.82 4.329 1.229 7.605 1.229 3.276 0 5.791-.41 7.547-1.229 1.755-.819 3.041-1.871 3.86-3.159.82-1.287 1.288-2.73 1.405-4.329.117-1.599.175-3.139.175-4.621V41.546c0-1.482-.214-2.905-.643-4.27-.43-1.366-1.21-2.574-2.34-3.628-1.132-1.053-2.633-1.91-4.505-2.574-1.872-.663-4.212-.994-7.02-.994-2.886 0-5.109.41-6.669 1.228-1.56.82-2.71 1.892-3.451 3.218-.742 1.326-1.17 2.788-1.287 4.387a63.385 63.385 0 00-.176 4.622v10.647zm31.707 15.21c0 .78-.273 1.443-.819 1.989a2.708 2.708 0 01-1.989.819c-.78 0-1.443-.273-1.989-.819a2.708 2.708 0 01-.819-1.989v-1.521c-.936 1.248-1.97 2.203-3.1 2.866a13.9 13.9 0 01-3.452 1.463c-1.17.312-2.301.487-3.393.526a85.609 85.609 0 01-3.042.059c-4.602 0-8.151-.487-10.647-1.463-2.496-.975-4.348-2.3-5.557-3.978-1.21-1.677-1.931-3.626-2.165-5.85-.234-2.223-.351-4.621-.351-7.195V43.418c0-2.574.098-4.992.293-7.254.195-2.262.838-4.231 1.93-5.909 1.092-1.677 2.808-3.002 5.148-3.978 2.34-.975 5.694-1.462 10.062-1.462.468 0 1.287.02 2.457.058 1.17.04 2.437.195 3.803.468 1.365.273 2.71.722 4.036 1.346 1.326.624 2.34 1.482 3.042 2.574h.936V12.296c0-.78.273-1.443.819-1.989a2.708 2.708 0 011.989-.819c.78 0 1.443.273 1.989.819.546.546.819 1.209.819 1.989v57.096zm22.269-1.872c3.51 0 6.513-.741 9.009-2.223a26.153 26.153 0 006.552-5.499V49.97c-1.17-.156-2.652-.234-4.446-.234h-4.095c-2.34 0-4.563.039-6.669.117-2.106.078-3.958.39-5.557.936-1.6.546-2.867 1.384-3.803 2.515-.936 1.132-1.404 2.75-1.404 4.856 0 6.162 3.471 9.282 10.413 9.36zm-9.594-41.418c3.9-.858 7.566-1.287 10.998-1.287 2.964 0 5.674.273 8.132.819 2.457.546 4.543 1.462 6.259 2.75 1.716 1.287 3.042 3.002 3.978 5.147.936 2.146 1.404 4.856 1.404 8.132v27.729c0 .78-.273 1.443-.819 1.989a2.708 2.708 0 01-1.989.819c-.78 0-1.443-.273-1.989-.819a2.708 2.708 0 01-.819-1.989v-3.393c-2.418 2.964-4.914 4.836-7.488 5.616a27.283 27.283 0 01-7.956 1.17c-5.616 0-9.711-1.053-12.285-3.159s-3.861-5.85-3.861-11.232c0-2.574.526-4.758 1.58-6.552a12.436 12.436 0 014.212-4.329c1.755-1.092 3.724-1.872 5.908-2.34a31.739 31.739 0 016.669-.702c2.028 0 4.192.195 6.494.585 2.3.39 4.27.936 5.908 1.638h.819v-5.148c0-2.184-.41-4.017-1.228-5.499-.82-1.482-1.931-2.652-3.335-3.51-1.404-.858-3.022-1.482-4.855-1.872a27.774 27.774 0 00-5.792-.585c-3.198 0-6.123.273-8.775.819-.156.078-.429.117-.819.117-.702 0-1.287-.234-1.755-.702-.468-.468-.702-1.053-.702-1.755 0-.624.195-1.15.585-1.58.39-.429.897-.721 1.521-.877zm42.393-11.817c0-.78.273-1.443.819-1.989a2.708 2.708 0 011.989-.819c.78 0 1.443.273 1.989.819.546.546.819 1.209.819 1.989V25.4h9.126c.78 0 1.404.253 1.872.76.468.507.702 1.151.702 1.931 0 1.716-.858 2.574-2.574 2.574h-9.126v27.963c0 1.56.059 2.866.176 3.92.117 1.053.448 1.91.994 2.573.546.664 1.326 1.131 2.34 1.404 1.014.273 2.457.41 4.329.41h1.404c.702 0 1.306.253 1.814.76.507.507.76 1.112.76 1.814s-.253 1.326-.76 1.872c-.508.546-1.112.819-1.814.819h-1.287c-2.574 0-4.719-.215-6.435-.644-1.716-.429-3.1-1.15-4.153-2.164-1.054-1.014-1.814-2.398-2.282-4.154-.468-1.755-.702-3.958-.702-6.61V30.665h-6.903c-1.716 0-2.574-.858-2.574-2.574 0-.78.234-1.424.702-1.93.468-.508 1.092-.761 1.872-.761h6.903V14.285zm22.152 13.923c0-.78.273-1.443.819-1.989a2.708 2.708 0 011.989-.819c.78 0 1.443.273 1.989.819.546.546.819 1.209.819 1.989v41.184c0 .78-.273 1.443-.819 1.989a2.708 2.708 0 01-1.989.819c-.78 0-1.443-.273-1.989-.819a2.708 2.708 0 01-.819-1.989V28.208zm0-14.625c0-.78.273-1.443.819-1.989a2.708 2.708 0 011.989-.819c.78 0 1.443.273 1.989.819.546.546.819 1.209.819 1.989v2.106c0 .78-.273 1.443-.819 1.989a2.708 2.708 0 01-1.989.819c-.78 0-1.443-.273-1.989-.819a2.708 2.708 0 01-.819-1.989v-2.106zm31.746 11.232c4.524 0 8.034.487 10.53 1.462 2.496.976 4.348 2.301 5.558 3.978 1.209 1.678 1.95 3.647 2.222 5.909.274 2.262.41 4.68.41 7.254v10.764c0 2.574-.136 4.992-.41 7.254-.273 2.262-1.013 4.231-2.222 5.908-1.21 1.678-3.062 3.003-5.558 3.978-2.496.976-6.006 1.463-10.53 1.463-4.524 0-8.053-.487-10.589-1.463-2.535-.975-4.406-2.3-5.615-3.978-1.21-1.677-1.931-3.646-2.165-5.908a70.641 70.641 0 01-.351-7.254V43.418c0-2.574.117-4.992.351-7.254.234-2.262.955-4.231 2.164-5.909 1.21-1.677 3.081-3.002 5.616-3.978 2.536-.975 6.065-1.462 10.589-1.462zm13.104 18.72c0-2.418-.078-4.485-.234-6.201-.156-1.716-.643-3.1-1.462-4.154-.82-1.053-2.106-1.833-3.861-2.34-1.756-.507-4.271-.76-7.547-.76s-5.811.234-7.605.702c-1.794.468-3.1 1.248-3.92 2.34-.819 1.092-1.286 2.496-1.404 4.212-.117 1.716-.175 3.783-.175 6.201v10.53c0 2.418.058 4.465.175 6.142.118 1.678.585 3.062 1.404 4.154.82 1.092 2.126 1.891 3.92 2.398 1.794.507 4.329.761 7.605.761 3.276 0 5.791-.254 7.547-.76 1.755-.508 3.041-1.307 3.86-2.399.82-1.092 1.307-2.476 1.463-4.154.156-1.677.234-3.724.234-6.142v-10.53zM312.326 87.314c0-.265-.012-.542-.036-.83a1.988 1.988 0 00-.222-.785 1.504 1.504 0 00-.585-.585c-.265-.156-.647-.234-1.146-.234-.5 0-.91.059-1.229.176-.32.117-.573.273-.76.468-.188.195-.32.413-.398.655a2.387 2.387 0 00-.117.737v2.41c0 .265.011.542.035.83.023.29.105.55.246.785.14.234.362.429.667.585.304.156.737.234 1.298.234.562 0 .995-.078 1.299-.234.304-.156.526-.351.667-.585.14-.234.222-.495.245-.784.024-.289.036-.566.036-.83v-2.013zm-6.014-6.108c0-.218.07-.397.21-.538.14-.14.32-.21.539-.21.218 0 .401.07.55.21.148.14.222.32.222.538v3.16h.21c.14-.203.32-.363.539-.48.218-.117.44-.203.666-.258a3.26 3.26 0 01.632-.093c.195-.008.332-.012.41-.012.889 0 1.575.097 2.059.293.484.195.835.464 1.053.807.218.343.347.74.386 1.193.04.453.059.944.059 1.474v2.06c0 .53-.024 1.025-.07 1.486-.047.46-.192.857-.433 1.193-.242.335-.617.6-1.124.796-.507.195-1.22.292-2.14.292-.39 0-.78-.05-1.17-.152-.39-.102-.75-.332-1.077-.69a.672.672 0 01-.223.526.795.795 0 01-.55.199.729.729 0 01-.538-.21.729.729 0 01-.21-.539V81.206zm15.054 11.069c-.328.42-.73.666-1.205.737-.476.07-.948.105-1.416.105-.577 0-1.065-.09-1.462-.27a2.622 2.622 0 01-.983-.748 3.045 3.045 0 01-.562-1.123 5.372 5.372 0 01-.175-1.416V84.39c0-.219.07-.398.21-.538.14-.14.32-.211.538-.211.219 0 .402.07.55.21.149.141.223.32.223.539v4.75c0 .312.011.624.035.936.023.312.101.593.234.842.132.25.343.453.632.609.288.156.698.234 1.228.234.905 0 1.529-.156 1.872-.468.343-.312.515-.811.515-1.498V84.39c0-.219.07-.398.21-.538.14-.14.32-.211.539-.211.218 0 .401.07.55.21.148.141.222.32.222.539v7.932-.07a.709.709 0 01-.222.538.769.769 0 01-.55.211.752.752 0 01-.539-.199.69.69 0 01-.21-.526h-.234zm4.173-7.886c0-.219.07-.398.21-.538.14-.14.32-.211.539-.211.218 0 .401.07.55.21.148.141.222.32.222.539v7.862a.709.709 0 01-.223.538.769.769 0 01-.55.211.729.729 0 01-.538-.21.729.729 0 01-.21-.539V84.39zm0-3.323c0-.218.07-.398.21-.538.14-.14.32-.21.539-.21.218 0 .401.07.55.21.148.14.222.32.222.538v.468a.709.709 0 01-.223.538.769.769 0 01-.55.21.729.729 0 01-.538-.21.729.729 0 01-.21-.538v-.468zm3.939.14c0-.218.07-.397.21-.538.14-.14.32-.21.539-.21.218 0 .401.07.55.21.148.14.222.32.222.538v11.045a.709.709 0 01-.223.538.769.769 0 01-.55.211.729.729 0 01-.538-.21.729.729 0 01-.21-.539V81.206zm5.109 8.12c0 .265.012.542.035.83.023.29.105.55.246.785.14.234.362.429.666.585.305.156.738.234 1.3.234.56 0 .994-.078 1.298-.234.304-.156.526-.351.667-.585.14-.234.222-.495.246-.784.023-.289.035-.566.035-.83v-2.411c0-.25-.04-.495-.117-.737a1.687 1.687 0 00-.398-.655c-.187-.195-.445-.351-.772-.468-.328-.117-.734-.176-1.217-.176-.5 0-.882.078-1.147.234-.265.156-.46.351-.585.585a1.988 1.988 0 00-.222.784 10.29 10.29 0 00-.035.83v2.013zm6.014 2.925c0 .219-.07.398-.211.538-.14.14-.32.211-.538.211a.795.795 0 01-.55-.199.672.672 0 01-.222-.526c-.328.358-.687.588-1.077.69-.39.101-.78.152-1.17.152-.92 0-1.634-.097-2.14-.293-.508-.195-.882-.46-1.124-.795a2.419 2.419 0 01-.433-1.194c-.047-.46-.07-.955-.07-1.485v-2.06c0-.53.02-1.021.058-1.474.04-.452.168-.85.386-1.193.219-.343.57-.612 1.053-.808.484-.195 1.17-.292 2.06-.292.078 0 .214.004.41.012.194.008.405.039.63.093.227.055.45.14.668.258.218.117.398.277.538.48h.21v-3.16c0-.218.075-.397.223-.538a.769.769 0 01.55-.21c.218 0 .398.07.538.21.14.14.21.32.21.538v11.045zm2.418-7.862c0-.219.07-.398.21-.538.14-.14.32-.211.538-.211.219 0 .402.07.55.21.149.141.223.32.223.539v7.862a.709.709 0 01-.223.538.769.769 0 01-.55.211.729.729 0 01-.538-.21.729.729 0 01-.21-.539V84.39zm0-3.323c0-.218.07-.398.21-.538.14-.14.32-.21.538-.21.219 0 .402.07.55.21.149.14.223.32.223.538v.468a.709.709 0 01-.223.538.769.769 0 01-.55.21.729.729 0 01-.538-.21.729.729 0 01-.21-.538v-.468zm5.694 3.3c.327-.422.729-.667 1.205-.738.476-.07.947-.105 1.415-.105.578 0 1.065.09 1.463.27.398.179.725.428.983.748.257.32.444.694.561 1.123.117.43.176.901.176 1.416v5.171a.709.709 0 01-.223.538.769.769 0 01-.55.211.729.729 0 01-.538-.21.729.729 0 01-.21-.539v-4.75c0-.312-.012-.624-.035-.936a2.111 2.111 0 00-.234-.842 1.49 1.49 0 00-.632-.609c-.289-.156-.698-.234-1.229-.234-.904 0-1.528.156-1.872.468-.343.312-.514.811-.514 1.498v5.405a.709.709 0 01-.223.538.769.769 0 01-.55.211.729.729 0 01-.538-.21.729.729 0 01-.21-.539V84.39c0-.219.07-.398.21-.538.14-.14.32-.211.538-.211.219 0 .402.066.55.199a.672.672 0 01.223.526h.234zm13.65 2.55c0-.25-.04-.495-.117-.737a1.687 1.687 0 00-.398-.655c-.187-.195-.445-.351-.772-.468-.328-.117-.734-.176-1.217-.176-.5 0-.882.078-1.147.234-.265.156-.46.351-.585.585a1.988 1.988 0 00-.222.784 10.29 10.29 0 00-.035.83v2.013c0 .265.012.542.035.83.023.29.105.55.246.785.14.234.362.429.666.585.305.156.738.234 1.3.234.56 0 .994-.078 1.298-.234.304-.156.526-.351.667-.585.14-.234.222-.495.245-.784.024-.289.036-.566.036-.83v-2.411zm-4.868 10.179a.899.899 0 01-.48-.234.59.59 0 01-.198-.445c0-.187.066-.347.199-.48a.654.654 0 01.48-.198c.374.078.787.132 1.24.164.452.03.842.046 1.17.046.717 0 1.306-.144 1.766-.432.46-.29.69-.808.69-1.557v-1.684c-.327.358-.686.588-1.076.69-.39.101-.78.152-1.17.152-.92 0-1.634-.097-2.14-.293-.508-.195-.882-.46-1.124-.795a2.419 2.419 0 01-.433-1.194c-.047-.46-.07-.955-.07-1.485v-2.06c0-.53.02-1.021.058-1.474.04-.452.168-.85.386-1.193.219-.343.57-.612 1.053-.808.484-.195 1.17-.292 2.06-.292.078 0 .214.004.41.012.194.008.405.039.63.093.227.055.45.14.668.258.218.117.398.277.538.48h.21a.69.69 0 01.211-.527.752.752 0 01.538-.199c.219 0 .402.07.55.21.149.141.223.32.223.539v9.43c0 .655-.094 1.205-.281 1.65a2.622 2.622 0 01-.808 1.076 3.257 3.257 0 01-1.263.585 7.136 7.136 0 01-1.65.176c-.312 0-.686-.016-1.123-.047a10.74 10.74 0 01-1.264-.164zm18.76-9.781c0-.265-.012-.542-.036-.83a1.988 1.988 0 00-.222-.785 1.504 1.504 0 00-.585-.585c-.265-.156-.647-.234-1.147-.234-.499 0-.908.059-1.228.176-.32.117-.573.273-.76.468-.188.195-.32.413-.398.655a2.387 2.387 0 00-.117.737v2.41c0 .265.011.542.035.83.023.29.105.55.245.785.14.234.363.429.667.585.305.156.737.234 1.299.234.562 0 .994-.078 1.299-.234.304-.156.526-.351.667-.585.14-.234.222-.495.245-.784.024-.289.035-.566.035-.83v-2.013zm-6.014-6.108c0-.218.07-.397.21-.538.14-.14.32-.21.538-.21.219 0 .402.07.55.21.149.14.223.32.223.538v3.16h.21c.14-.203.32-.363.538-.48.219-.117.441-.203.667-.258a3.26 3.26 0 01.632-.093c.195-.008.332-.012.41-.012.889 0 1.575.097 2.059.293.483.195.834.464 1.053.807.218.343.347.74.386 1.193.039.453.058.944.058 1.474v2.06c0 .53-.023 1.025-.07 1.486-.047.46-.19.857-.433 1.193-.242.335-.616.6-1.123.796-.507.195-1.22.292-2.141.292-.39 0-.78-.05-1.17-.152-.39-.102-.749-.332-1.076-.69a.672.672 0 01-.223.526.795.795 0 01-.55.199.729.729 0 01-.538-.21.729.729 0 01-.21-.539V81.206zm9.601 0c0-.218.07-.397.211-.538.14-.14.32-.21.538-.21.219 0 .402.07.55.21.148.14.222.32.222.538v11.045a.709.709 0 01-.222.538.769.769 0 01-.55.211.729.729 0 01-.538-.21.729.729 0 01-.21-.539V81.206zm7.356 2.317c.92 0 1.634.097 2.14.293.508.195.882.464 1.124.807.242.343.386.74.433 1.193.047.453.07.944.07 1.474v2.06c0 .53-.023 1.025-.07 1.486-.047.46-.191.857-.433 1.193-.242.335-.616.6-1.123.796-.507.195-1.22.292-2.141.292-.92 0-1.634-.097-2.141-.293-.507-.195-.882-.46-1.124-.795a2.419 2.419 0 01-.432-1.194c-.047-.46-.07-.955-.07-1.485v-2.06c0-.53.023-1.021.07-1.474.046-.452.19-.85.433-1.193.241-.343.616-.612 1.123-.808.507-.195 1.22-.292 2.14-.292zm2.246 3.79c0-.264-.012-.541-.035-.83a1.781 1.781 0 00-.246-.784c-.14-.234-.362-.429-.666-.585-.305-.156-.738-.234-1.3-.234-.56 0-.994.078-1.298.234-.304.156-.526.351-.667.585-.14.234-.222.495-.246.784a10.29 10.29 0 00-.035.83v2.013c0 .265.012.542.035.83.024.29.106.55.246.785.14.234.363.429.667.585.304.156.737.234 1.299.234.561 0 .994-.078 1.299-.234.304-.156.526-.351.666-.585.14-.234.223-.495.246-.784.024-.289.035-.566.035-.83v-2.013zm9.672 4.236a.58.58 0 01.457.2.7.7 0 01.175.479.726.726 0 01-.129.421.554.554 0 01-.362.234c-.406.078-.85.136-1.334.175-.484.04-.897.059-1.24.059a7.136 7.136 0 01-1.65-.175 3.257 3.257 0 01-1.264-.585 2.622 2.622 0 01-.807-1.077c-.187-.445-.28-.994-.28-1.65v-2.62c0-.656.093-1.205.28-1.65.187-.445.456-.803.807-1.076a3.257 3.257 0 011.264-.586 7.136 7.136 0 011.65-.175c.358 0 .776.02 1.252.059.475.039.916.097 1.322.175.156.031.276.11.362.234a.726.726 0 01.129.421.7.7 0 01-.175.48.58.58 0 01-.457.199 9.246 9.246 0 00-1.263-.164 18.378 18.378 0 00-1.194-.047c-.717 0-1.306.144-1.767.433-.46.289-.69.807-.69 1.556v2.902c0 .749.23 1.267.69 1.556.46.289 1.05.433 1.767.433.328 0 .726-.016 1.194-.047.468-.031.889-.086 1.263-.164zm9.18-7.769a.789.789 0 01.445-.14c.234 0 .437.11.609.328.093.14.14.288.14.444 0 .265-.101.468-.304.609l-2.246 1.731 2.69 5.218a.71.71 0 01.024.211.771.771 0 01-.14.456.82.82 0 01-.375.293.67.67 0 01-.304.07c-.312 0-.53-.164-.655-.491l-2.48-4.82-2.621 1.941v2.621a.709.709 0 01-.223.538.769.769 0 01-.55.211.729.729 0 01-.538-.21.729.729 0 01-.21-.539V81.206c0-.218.07-.397.21-.538.14-.14.32-.21.538-.21.219 0 .402.07.55.21.149.14.223.32.223.538v6.552l5.218-3.978zm3.05 9.056c-.452-.093-.678-.335-.678-.725a.76.76 0 01.187-.503.637.637 0 01.515-.223c.187.063.402.117.644.164a11.688 11.688 0 001.977.21c.405 0 .737-.03.994-.093.258-.062.457-.152.597-.269a.84.84 0 00.28-.445c.048-.179.071-.393.071-.643 0-.296-.136-.538-.41-.725a4.268 4.268 0 00-1.017-.492c-.406-.14-.847-.277-1.322-.41a6.852 6.852 0 01-1.323-.514 3.264 3.264 0 01-1.017-.807c-.274-.328-.41-.75-.41-1.264 0-.967.324-1.638.971-2.012.648-.375 1.525-.562 2.633-.562.358 0 .764.02 1.216.059.453.039.874.097 1.264.175.156.031.277.11.363.234a.726.726 0 01.128.421.7.7 0 01-.175.48.58.58 0 01-.456.199 9.636 9.636 0 00-1.077-.152 13.208 13.208 0 00-1.217-.059c-.826 0-1.388.098-1.684.293-.297.195-.445.503-.445.924 0 .312.136.562.41.749.273.187.612.347 1.017.48.406.132.847.26 1.322.386a6.36 6.36 0 011.323.503c.405.21.744.48 1.018.807.273.328.409.757.409 1.287 0 1.03-.261 1.755-.784 2.176-.523.421-1.416.632-2.68.632-.374 0-.806-.023-1.298-.07-.491-.047-.94-.117-1.345-.21z" fill-opacity=".87" fill="#1F1F1F"/><rect fill="url(#prefix__c)" x="427" y="52" width="20" height="20" rx="4.5"/></g></svg>